<?xml version="1.0" standalone="no"?>
<!DOCTYPE svg PUBLIC "-//W3C//DTD SVG 20010904//EN"
 "http://www.w3.org/TR/2001/REC-SVG-20010904/DTD/svg10.dtd">
<svg version="1.0" xmlns="http://www.w3.org/2000/svg"
 width="2024.000000pt" height="2024.000000pt" viewBox="0 0 2024.000000 2024.000000"
 preserveAspectRatio="xMidYMid meet">
<metadata>
Created by potrace 1.11, written by Peter Selinger 2001-2013
</metadata>
<g transform="translate(0.000000,2024.000000) scale(0.100000,-0.100000)"
fill="#000000" stroke="none">
<path d="M9529 19193 c-16 -49 -51 -103 -66 -103 -7 0 -13 -5 -13 -11 0 -6
-17 -27 -37 -46 -27 -25 -31 -32 -14 -23 21 11 23 10 18 -4 -5 -12 -2 -17 11
-15 29 3 38 -1 23 -10 -9 -6 -22 -6 -34 1 -13 6 -23 6 -29 0 -7 -7 -17 -3 -30
10 l-21 21 -13 -24 c-11 -20 -10 -95 1 -107 2 -2 18 -5 37 -8 185 -25 237 -41
239 -73 1 -12 2 -24 3 -28 3 -11 20 -106 21 -118 1 -5 5 -26 9 -45 11 -61 14
-120 5 -125 -4 -3 -41 -8 -81 -11 -115 -8 -179 -13 -238 -19 -30 -3 -73 -8
-95 -10 -36 -4 -230 -27 -330 -40 -22 -3 -62 -9 -90 -15 -27 -5 -68 -12 -90
-15 -82 -12 -108 -16 -200 -35 -27 -5 -61 -12 -75 -14 -14 -2 -59 -12 -100
-21 -41 -9 -86 -19 -100 -21 -367 -72 -983 -266 -1450 -458 -242 -100 -777
-357 -872 -420 l-28 -18 28 -21 c47 -37 50 -42 40 -60 -6 -12 -5 -17 3 -17 7
0 5 -10 -7 -27 -19 -30 -72 -83 -83 -83 -3 0 -7 16 -9 36 -3 45 -37 124 -52
124 -33 0 -470 -276 -735 -464 -232 -164 -587 -445 -740 -586 -22 -20 -65 -59
-95 -87 -30 -27 -77 -71 -105 -96 -32 -30 -60 -47 -77 -48 -16 -1 -32 -3 -38
-4 -5 -1 -14 -3 -19 -4 -8 -1 -8 -31 0 -57 2 -6 -59 -76 -136 -156 -132 -136
-258 -272 -320 -346 -15 -18 -48 -42 -75 -53 -43 -19 -47 -23 -44 -51 3 -24
-5 -41 -39 -82 -23 -28 -46 -55 -50 -61 -4 -5 -41 -53 -82 -105 -105 -133
-258 -344 -360 -496 -47 -71 -90 -129 -95 -129 -10 0 -100 140 -100 155 0 4
-21 1 -47 -7 -27 -8 -87 -15 -134 -16 -73 -1 -85 -3 -84 -18 2 -27 119 -299
129 -299 20 0 74 51 86 81 l14 32 27 -33 c16 -18 27 -36 25 -39 -6 -12 -150
-257 -165 -281 -18 -29 -77 -138 -123 -227 -29 -56 -53 -75 -46 -36 2 11 -8
19 -27 25 -65 18 -73 17 -77 -6 -8 -40 8 -64 51 -76 23 -6 41 -13 41 -15 0 -3
-20 -44 -44 -92 -66 -132 -132 -273 -193 -418 -30 -71 -61 -143 -68 -160 -53
-118 -210 -568 -265 -757 l-23 -77 -27 14 c-15 8 -31 11 -34 7 -12 -11 -48
-95 -56 -129 -8 -35 -8 -35 63 -16 20 5 20 1 6 -51 -6 -21 -13 -48 -15 -60 -7
-31 -9 -39 -17 -61 -3 -11 -8 -31 -11 -45 -2 -14 -12 -56 -21 -95 -9 -38 -18
-78 -21 -88 -2 -10 -5 -26 -8 -35 -3 -9 -7 -34 -11 -55 -3 -22 -12 -69 -20
-105 -12 -57 -45 -243 -61 -347 -2 -16 -6 -41 -9 -55 -2 -14 -7 -45 -10 -70
-3 -25 -7 -58 -9 -75 -2 -16 -7 -59 -11 -95 -10 -96 -14 -123 -17 -124 -2 -1
-28 -22 -58 -46 -156 -127 -160 -140 -43 -165 l84 -18 -6 -101 c-4 -56 -8
-128 -10 -161 -5 -72 -5 -634 -1 -720 9 -162 17 -303 21 -335 2 -19 7 -73 11
-120 3 -47 8 -93 9 -102 2 -9 7 -48 10 -85 4 -37 9 -77 11 -88 2 -11 6 -42 9
-70 3 -27 8 -57 10 -65 2 -8 7 -39 10 -69 4 -30 9 -63 11 -75 2 -12 9 -48 14
-81 17 -103 22 -127 50 -265 12 -58 26 -124 31 -147 13 -66 108 -435 130 -510
102 -335 222 -674 319 -902 23 -54 31 -85 28 -117 -3 -38 -1 -43 17 -40 16 2
26 -11 52 -66 18 -38 33 -72 33 -74 0 -16 246 -494 322 -624 l37 -65 -24 -20
c-13 -11 -41 -34 -62 -51 -46 -37 -52 -68 -18 -90 23 -15 27 -14 84 30 33 25
62 46 65 46 2 0 21 -28 42 -63 21 -34 57 -93 82 -130 l44 -68 60 93 c33 51 81
126 106 166 39 60 51 72 69 69 18 -3 23 1 24 17 1 49 13 75 69 161 32 49 107
164 165 255 59 91 157 242 218 337 62 95 148 227 192 295 43 68 122 188 174
268 93 143 151 233 298 460 41 63 129 199 196 302 67 103 149 229 182 280 32
51 112 174 176 273 65 99 151 232 192 295 41 63 114 176 162 250 189 290 278
427 373 575 25 39 69 106 97 150 29 44 124 190 211 325 120 185 163 244 177
242 13 -3 17 3 17 27 0 30 8 44 201 341 42 63 90 139 109 168 18 28 37 52 41
52 5 0 25 -14 46 -32 32 -27 34 -28 14 -5 -24 27 -17 38 9 15 8 -7 -1 4 -18
25 -20 23 -29 43 -25 50 5 7 39 60 77 117 38 58 109 166 158 241 l89 136 37
-12 c20 -7 53 -16 72 -20 l35 -8 -25 21 -25 20 30 -4 30 -5 -26 13 c-15 7 -38
27 -52 44 l-26 31 66 101 c64 98 68 101 97 97 29 -5 30 -4 12 10 -20 15 -20
15 0 15 18 1 18 1 2 11 -17 9 -17 11 -1 37 21 34 188 292 374 577 58 88 123
188 144 222 22 34 101 155 175 269 l134 208 18 -40 18 -39 -2 44 c-3 43 -2 44
42 62 43 17 43 18 15 19 l-30 1 25 14 25 14 -27 1 c-16 0 -28 2 -28 6 0 3 19
33 41 66 32 47 42 72 44 107 2 39 36 215 51 259 2 9 14 3 36 -17 30 -28 66
-48 72 -39 1 1 24 37 50 78 25 41 93 147 151 235 57 88 132 204 166 257 39 62
66 95 73 90 7 -5 25 5 45 25 38 37 33 40 -29 18 -23 -8 -46 -15 -50 -15 -13 0
-1 89 30 220 4 19 14 63 21 97 l13 62 28 -15 c15 -8 46 -37 67 -64 l40 -51 58
88 c32 48 63 96 68 105 6 10 52 82 103 160 51 79 142 220 203 313 60 94 145
224 188 290 43 66 103 158 133 205 30 47 157 242 282 433 124 192 226 352 226
357 0 5 3 10 8 12 4 2 81 118 172 258 90 140 172 265 181 278 l18 23 13 -23
c7 -13 17 -31 23 -41 10 -19 148 -235 220 -347 23 -36 100 -157 171 -270 71
-113 142 -226 159 -252 16 -26 54 -85 84 -132 54 -87 67 -99 78 -70 5 13 10
11 33 -11 27 -26 34 -65 17 -92 -10 -16 -17 -4 238 -406 121 -191 227 -358
235 -371 8 -14 35 -57 60 -96 25 -39 49 -80 55 -90 5 -11 13 -20 17 -20 5 0 8
-5 8 -11 0 -5 24 -47 53 -92 70 -106 86 -131 332 -522 114 -181 211 -333 214
-337 3 -4 37 0 76 8 69 14 70 14 87 -8 20 -28 22 -97 2 -99 -8 -1 -17 -2 -21
-3 -5 -1 -23 -6 -41 -10 -28 -7 -31 -10 -20 -23 7 -8 17 -23 23 -34 5 -10 120
-192 255 -404 361 -568 360 -566 360 -576 0 -5 5 -9 10 -9 6 0 10 -4 10 -8 0
-5 25 -47 55 -93 l55 -84 0 43 c0 51 -1 51 111 -6 89 -45 95 -64 43 -141 -2
-2 -16 6 -32 18 -17 12 -33 21 -37 21 -4 0 -20 9 -36 21 -16 11 -29 18 -29 14
0 -5 121 -199 225 -360 17 -27 56 -88 85 -135 29 -47 76 -121 105 -165 28 -44
68 -108 90 -142 21 -35 39 -63 41 -63 5 0 -18 52 -29 68 -6 8 -5 12 2 12 8 0
10 8 6 19 -5 15 1 24 24 36 l31 15 32 -62 c77 -150 84 -187 41 -207 l-25 -11
20 -33 c22 -36 179 -285 483 -764 112 -177 215 -340 229 -362 14 -22 45 -72
70 -111 25 -39 52 -82 60 -96 29 -46 114 -180 155 -244 79 -123 190 -300 200
-317 6 -10 36 -58 68 -106 31 -48 57 -91 57 -96 0 -5 7 -14 15 -21 25 -20 17
-28 -24 -23 -48 6 -57 -16 -30 -71 9 -20 22 -49 28 -64 10 -24 11 -22 6 19 -4
44 -3 47 26 59 25 11 33 11 43 -1 7 -8 84 -126 171 -264 227 -359 324 -513
360 -570 18 -27 119 -187 225 -355 381 -603 696 -1100 766 -1210 16 -25 33
-53 39 -62 25 -44 260 -414 264 -418 4 -3 11 -14 17 -25 23 -40 473 -750 483
-762 8 -9 19 -9 42 -1 22 8 45 33 85 95 30 46 54 86 54 89 0 3 8 18 19 32 19
29 36 58 138 242 60 107 94 158 81 119 -3 -8 1 -25 11 -37 l16 -22 73 47 c41
25 70 48 65 52 -13 10 -9 35 10 56 22 24 19 74 -6 89 -14 9 -22 6 -41 -19 -15
-19 -24 -40 -22 -56 3 -22 -4 -31 -34 -48 -21 -12 -41 -21 -44 -21 -15 0 7 55
81 205 43 88 87 180 98 205 25 59 36 74 45 60 8 -13 228 -16 240 -3 5 4 11 60
15 123 3 63 8 132 10 152 l3 38 -41 0 c-23 0 -58 -4 -76 -10 -19 -5 -36 -8
-38 -6 -2 2 21 66 50 142 56 142 166 467 208 608 17 61 20 81 10 84 -9 3 -8 9
5 23 16 18 16 19 -1 19 -16 0 -14 5 10 30 19 20 35 54 47 98 23 90 96 399 103
440 3 18 12 63 19 100 12 57 34 177 52 285 2 15 6 39 9 55 2 15 7 47 10 72 3
25 8 54 10 65 2 11 4 28 4 37 1 20 17 16 73 -19 20 -12 40 -18 43 -13 13 21 7
129 -9 152 -16 22 -16 22 -16 -15 0 -41 -11 -45 -55 -25 -21 10 -25 17 -21 42
3 17 8 63 11 101 4 39 8 84 10 100 2 17 6 66 10 110 3 44 8 105 11 135 8 78
15 906 8 924 -4 11 -17 15 -37 13 -28 -2 -34 3 -56 47 -30 61 -34 113 -9 145
10 13 18 38 18 55 l1 31 35 -38 36 -39 -6 79 c-4 43 -9 96 -12 118 -2 22 -6
63 -8 90 -3 28 -7 70 -10 95 -15 119 -36 277 -40 295 -2 15 9 27 43 47 41 24
43 28 21 29 -14 0 -19 3 -12 6 27 11 10 22 -28 17 -28 -3 -40 -1 -41 8 0 7 -2
20 -4 28 -1 8 -6 32 -9 54 -3 21 -9 42 -12 47 -15 25 16 3 59 -42 l49 -51 23
22 c31 29 23 54 -38 117 l-51 53 -23 -22 c-13 -12 -23 -20 -24 -17 0 2 -2 11
-4 19 -3 15 -61 284 -71 330 -3 14 -10 43 -16 65 -5 22 -11 47 -13 56 -5 24
-64 248 -80 299 -7 25 -25 86 -40 135 -150 498 -384 1063 -625 1510 -15 28
-27 54 -27 59 1 5 -14 32 -32 60 -18 28 -78 128 -133 221 -141 240 -457 710
-565 840 -4 6 -24 30 -43 55 -19 25 -43 54 -52 64 -23 25 -23 29 6 114 27 77
27 108 3 106 -83 -7 -122 -15 -135 -28 -15 -13 -24 -6 -91 72 -245 289 -670
714 -926 928 -38 32 -72 61 -75 64 -3 3 -53 45 -112 93 -60 49 -108 91 -108
94 0 4 7 15 16 24 9 10 18 34 20 52 3 28 0 36 -19 44 -21 10 -26 7 -48 -33
-13 -24 -25 -44 -28 -44 -2 0 -54 37 -115 82 -61 45 -113 83 -114 84 -2 1 -1
12 3 23 6 19 36 32 105 45 79 14 140 68 140 124 0 14 -7 19 -32 19 -20 0 -37
7 -49 21 l-17 22 -21 -43 c-32 -66 -64 -78 -216 -81 l-100 -1 -80 55 c-79 54
-178 118 -305 197 -229 141 -645 362 -880 468 -69 30 -132 59 -141 64 -133 74
-945 367 -1124 407 -5 1 -77 20 -160 43 -393 107 -963 213 -1330 246 -38 3
-81 8 -95 10 -14 3 -66 7 -115 11 -50 3 -110 8 -135 9 -236 18 -843 24 -983
12 -56 -6 -58 -5 -51 16 3 12 16 32 27 45 11 12 15 22 9 22 -6 0 -9 6 -7 13 3
6 -10 19 -28 27 -28 13 -32 20 -35 60 -2 42 0 46 30 60 40 19 45 49 18 99 -27
46 -77 81 -128 88 -40 5 -40 6 -56 69 -23 89 -21 96 24 124 40 25 51 40 28 40
-10 0 -10 2 0 8 9 6 -1 18 -32 40 l-44 32 -13 -37z m695 -1563 c4 -41 9 -93
11 -115 9 -70 14 -185 9 -185 -7 0 -68 32 -74 39 -3 3 -22 21 -41 39 l-36 33
-69 -20 c-38 -12 -88 -23 -112 -25 l-44 -4 23 24 22 23 -24 -4 c-21 -4 -19 1
17 33 64 59 184 164 222 197 20 17 45 40 56 53 19 21 21 21 27 5 3 -10 9 -52
13 -93z m-1085 -7 c-3 -56 -22 -143 -32 -143 -16 0 -149 81 -144 87 3 2 28 -6
56 -20 28 -13 51 -21 51 -18 0 7 -67 53 -94 64 -10 4 -16 10 -13 14 4 3 29 -5
57 -19 l50 -25 33 43 c17 24 33 44 34 44 2 0 2 -12 2 -27z m345 -108 c22 -5
27 -10 23 -25 -3 -11 -1 -20 4 -20 8 0 -80 -180 -96 -198 -2 -2 -22 2 -45 8
-36 10 -40 13 -28 27 9 12 10 17 1 20 -14 5 86 202 101 198 6 -2 24 -6 40 -10z
m-866 -111 c1 -14 11 -46 21 -69 14 -31 16 -45 8 -48 -9 -3 -8 -9 2 -21 14
-16 12 -17 -29 -11 -25 4 -48 8 -51 11 -4 2 -24 6 -45 10 -51 8 -59 13 -38 28
16 12 16 13 -1 20 -14 5 -3 17 56 56 41 27 74 49 74 50 0 0 2 -12 3 -26z m256
-97 c14 -10 16 -16 7 -21 -8 -5 -9 -12 -2 -20 7 -8 1 -22 -20 -46 -66 -76 -75
-86 -100 -117 l-26 -31 -29 19 c-55 36 -41 70 90 216 30 33 36 33 80 0z m796
19 c14 -3 63 -13 110 -22 79 -17 83 -18 57 -29 -30 -12 -26 -25 7 -26 25 0
-53 -37 -158 -74 -39 -14 -78 -28 -86 -32 -8 -3 -19 -7 -25 -9 -5 -1 -39 -12
-74 -23 -81 -27 -85 -26 -33 5 23 14 42 28 42 31 0 5 -30 -1 -67 -13 -10 -4 4
8 30 25 62 40 114 96 133 143 9 20 21 35 27 33 7 -3 23 -7 37 -9z m-4053 -185
c7 -11 14 -39 17 -63 l5 -43 -104 -72 c-56 -40 -108 -73 -113 -73 -6 0 -16 17
-23 38 -13 38 -18 92 -9 92 3 0 50 32 104 70 55 39 102 70 106 70 3 0 11 -9
17 -19z m3810 -98 c37 -54 70 -100 74 -103 3 -3 12 -16 19 -29 9 -18 9 -25 0
-31 -9 -5 -9 -9 -1 -14 18 -11 13 -22 -16 -35 -19 -9 -29 -9 -31 -2 -2 6 -8
11 -14 11 -6 0 -7 -7 -4 -16 8 -20 -19 -70 -47 -89 -23 -15 -65 -23 -123 -24
-20 -1 -41 -10 -55 -26 -13 -13 -29 -25 -35 -25 -29 0 -101 90 -88 111 4 7 3
9 -4 5 -6 -3 -14 3 -17 15 -11 34 -13 69 -4 69 5 0 9 -6 9 -14 0 -7 7 -19 15
-26 22 -18 50 -3 126 68 64 59 64 59 84 39 21 -21 103 -60 116 -55 4 2 -24 44
-61 93 -43 55 -67 96 -64 107 3 9 -1 20 -7 24 -8 4 0 13 22 24 19 10 35 18 36
19 1 1 32 -43 70 -96z m-1401 -430 c-3 -3 -13 0 -21 7 -13 11 -13 15 -3 21 10
6 10 11 1 20 -10 10 -9 17 5 32 16 19 17 18 20 -28 2 -26 1 -50 -2 -52z m5473
-288 c7 -8 2 -73 -9 -114 -10 -37 -14 -42 -33 -37 -12 3 -30 6 -40 6 -15 0
-17 7 -12 58 2 31 6 66 9 77 2 11 5 22 5 24 1 4 74 -9 80 -14z m-6218 -277 c9
-18 15 -46 15 -62 -1 -28 -10 -34 -186 -123 l-185 -94 -15 37 c-32 75 -27 80
162 174 93 47 172 88 174 93 10 14 21 7 35 -25z m4894 -245 c48 -30 56 -43 28
-43 -16 -1 -16 -2 1 -15 11 -8 18 -16 15 -19 -2 -2 -50 -26 -106 -54 -98 -48
-109 -49 -75 -9 18 20 10 22 -21 5 -18 -9 -16 -5 9 24 16 19 43 65 59 102 21
48 31 63 37 53 4 -9 28 -28 53 -44z m-5394 -50 c26 -66 19 -83 -106 -247 l-20
-26 -24 21 c-38 31 -35 75 8 129 20 25 38 47 41 50 3 3 23 26 44 53 21 26 40
47 42 47 3 0 9 -12 15 -27z m6364 -158 c66 -14 130 -28 143 -31 18 -4 22 -11
21 -42 -1 -20 -4 -48 -8 -62 l-6 -25 -162 34 -163 34 0 32 c0 18 3 47 6 64 5
25 10 30 28 26 11 -3 75 -16 141 -30z m475 -58 l105 -22 -2 -45 c-5 -78 4 -75
-157 -41 -71 15 -81 20 -84 41 -6 35 7 90 21 90 7 -1 59 -11 117 -23z m-2167
-14 c8 -16 15 -43 15 -61 1 -29 -4 -34 -51 -56 l-52 -24 -14 27 c-8 14 -15 41
-16 60 -1 31 3 36 50 57 27 13 51 24 52 24 1 0 9 -12 16 -27z m-5340 -187 c5
-42 4 -47 -11 -41 -37 15 -71 23 -76 17 -3 -3 -6 0 -6 7 0 6 7 14 15 17 8 4
12 10 9 15 -3 5 -10 7 -15 4 -23 -15 -6 14 21 33 16 12 33 35 37 50 7 26 7 25
14 -13 4 -22 10 -62 12 -89z m199 114 c39 -11 121 -63 160 -103 20 -20 22 -29
17 -69 -4 -25 -12 -55 -18 -66 -14 -26 -6 -31 66 -38 75 -7 115 -20 141 -44
27 -25 77 -178 86 -263 l3 -28 -31 34 c-56 62 -270 237 -290 237 -4 0 -4 -22
-2 -50 5 -57 7 -56 -84 -26 -69 23 -80 33 -49 44 l24 9 -23 7 c-36 12 -25 25
28 32 53 7 54 9 50 69 -2 39 -34 106 -63 133 -12 12 -47 35 -77 51 -30 17 -53
31 -50 32 3 0 13 2 23 4 30 6 30 12 2 19 -14 4 -23 11 -20 16 8 13 60 13 107
0z m5149 -100 c65 -18 103 -51 105 -90 1 -19 -3 -38 -8 -41 -11 -7 -12 -28 -5
-109 5 -63 -10 -110 -44 -134 -31 -22 -35 -21 -49 14 -7 16 -31 47 -55 69 -49
45 -52 75 -13 132 30 45 53 98 45 105 -3 4 -21 10 -39 15 -31 8 -31 8 10 5 30
-2 42 0 42 10 0 8 -10 16 -22 18 -13 3 -32 7 -43 9 -13 3 -9 5 10 6 17 0 46
-4 66 -9z m-4069 -48 c29 -75 22 -89 -65 -127 l-77 -34 -19 37 c-10 20 -17 50
-16 65 1 26 10 33 76 62 41 18 77 34 80 34 3 1 13 -16 21 -37z m-1398 -114
c33 -116 69 -265 72 -299 3 -33 0 -38 -26 -49 -35 -14 -46 -9 -53 27 -3 16
-19 82 -37 148 -18 66 -34 138 -36 161 -4 36 -1 41 23 51 16 6 31 11 35 12 4
1 13 -23 22 -51z m872 -13 c18 -4 20 -11 19 -62 l-1 -58 -64 3 c-36 2 -68 8
-71 13 -3 5 -7 33 -8 63 l-2 53 53 -4 c29 -2 62 -6 74 -8z m1369 -65 c33 -6
68 -13 77 -16 10 -3 33 -35 53 -72 l35 -67 59 -2 c64 -2 151 -33 189 -66 16
-15 19 -23 10 -28 -9 -6 -9 -11 1 -23 23 -28 -80 -39 -206 -22 -41 6 -53 4
-54 -6 -6 -53 -5 -96 3 -110 6 -12 5 -18 -2 -18 -8 0 -8 -6 0 -20 6 -11 8 -20
5 -20 -8 0 -345 170 -345 174 0 2 17 0 38 -5 60 -14 60 -10 2 21 -51 27 -52
29 -20 24 19 -3 50 -10 68 -14 18 -5 30 -5 28 -1 -3 4 -31 13 -62 20 l-56 13
5 49 c3 26 8 52 11 57 3 6 28 4 60 -3 59 -14 78 -23 72 -33 -2 -4 -6 -31 -10
-59 l-6 -53 65 4 c36 1 68 6 72 9 15 16 -108 156 -207 236 l-25 20 30 -4 30
-5 -29 24 -29 24 39 -8 c22 -5 66 -13 99 -20z m-1975 8 c19 -12 19 -13 -3 -25
-18 -10 -19 -12 -4 -13 29 0 19 -14 -37 -52 l-55 -37 5 35 c5 44 18 69 46 88
27 19 24 19 48 4z m-2728 -187 c6 -5 11 -159 9 -279 -1 -32 -1 -33 -38 -26
-21 3 -42 10 -46 14 -5 4 -8 63 -9 131 0 198 -4 181 40 173 20 -3 40 -9 44
-13z m2633 -42 c6 -2 10 -24 10 -49 -1 -40 -4 -63 -19 -135 -2 -11 -9 -48 -16
-81 l-12 -62 -29 8 c-16 5 -33 8 -37 7 -16 -4 -12 67 12 187 14 70 28 131 31
136 3 5 15 6 28 1 12 -5 27 -10 32 -12z m6305 -64 c0 -8 4 -15 9 -17 5 -1 27
-32 50 -67 34 -54 41 -72 41 -115 0 -50 -21 -106 -56 -153 -16 -22 -15 -23 33
-45 l48 -23 -2 -90 c-1 -97 -21 -159 -63 -203 -25 -27 -37 -23 -21 7 10 17 9
20 -5 14 -15 -5 -15 -3 0 25 37 72 20 139 -53 205 -46 41 -53 44 -71 21 -23
-27 -51 -38 -61 -23 -6 9 -9 1 -9 -24 0 -44 -24 -59 -78 -46 -46 10 -48 15
-10 24 l33 7 -34 10 c-35 10 -36 16 -5 22 81 17 112 29 109 44 -2 18 1 29 31
100 l18 43 32 -37 c24 -26 35 -33 39 -23 8 23 12 249 6 316 -5 50 -4 60 6 51
7 -6 13 -16 13 -23z m643 -209 l101 -21 -1 -32 c-3 -86 -5 -88 -86 -69 -79 19
-127 28 -144 29 -8 0 -13 15 -13 41 0 60 9 86 27 79 8 -3 60 -15 116 -27z
m275 -57 c26 -5 66 -15 89 -21 l41 -10 -4 -51 c-3 -28 -7 -53 -9 -55 -4 -5
-141 18 -170 29 -14 4 -20 15 -19 30 1 33 15 89 20 89 3 0 26 -5 52 -11z
m-4903 -87 c-3 -8 -1 -20 5 -26 7 -9 -11 -24 -64 -54 -41 -23 -78 -42 -83 -42
-14 0 -30 41 -29 73 1 23 12 34 66 66 l65 38 23 -20 c12 -12 20 -27 17 -35z
m-5004 -84 c47 -22 146 -29 244 -16 l50 6 -53 -25 c-59 -28 -64 -38 -11 -23
59 17 78 11 31 -10 -41 -19 -200 -71 -254 -84 -27 -6 -30 -3 -46 54 -7 23 -14
120 -10 120 2 0 24 -10 49 -22z m9555 -11 c12 0 47 -57 35 -57 -4 0 -7 -10 -7
-22 1 -18 -4 -21 -34 -21 -19 0 -72 1 -117 2 l-83 1 0 55 0 55 98 -6 c53 -4
102 -7 108 -7z m-905 -86 c55 -48 93 -121 91 -174 -2 -51 -12 -62 -68 -77 -63
-18 -91 -4 -88 41 2 19 4 82 6 142 1 59 5 107 8 107 4 0 27 -17 51 -39z m249
-159 c0 -4 10 -18 23 -32 12 -14 29 -34 37 -45 14 -19 14 -19 -3 -6 -26 21
-34 4 -9 -19 12 -12 22 -24 22 -27 0 -4 -5 -2 -12 5 -15 15 -63 16 -89 2 -20
-11 -28 3 -9 15 16 10 11 28 -6 21 -11 -4 -10 1 5 20 12 15 21 37 21 50 0 13
5 24 10 24 6 0 10 -3 10 -8z m797 -124 c23 -30 9 -65 -42 -107 -27 -22 -52
-41 -56 -41 -3 0 -18 11 -32 24 -19 17 -22 27 -14 35 8 8 8 14 0 22 -9 9 3 23
45 54 57 44 74 46 99 13z m-9586 -92 c7 -58 3 -74 -29 -119 l-35 -48 -28 27
c-19 18 -26 31 -19 38 6 6 6 14 0 21 -7 8 5 29 38 67 41 49 49 54 60 40 6 -9
13 -21 13 -26z m9046 -1 c45 -4 90 -8 100 -10 10 -2 28 -4 39 -4 18 -1 22 -9
29 -58 11 -91 14 -104 40 -160 13 -29 19 -53 14 -53 -6 0 -6 -8 1 -20 10 -19
8 -20 -44 -20 -56 0 -97 12 -128 38 -25 21 -23 35 3 22 11 -6 25 -9 32 -6 7 2
6 5 -4 5 -8 1 -26 13 -40 28 -21 23 -22 25 -4 19 48 -19 75 -24 80 -16 6 10
-14 101 -26 114 -4 5 -18 10 -31 11 -80 10 -118 19 -152 38 -35 20 -51 47 -23
39 6 -2 4 5 -6 16 -24 26 -21 33 11 28 15 -3 64 -8 109 -11z m1205 -127 c29
-40 42 -65 35 -70 -8 -4 -7 -11 2 -22 10 -12 8 -17 -18 -30 l-29 -16 -46 64
c-26 37 -44 71 -40 79 3 8 0 18 -6 22 -13 8 17 34 40 35 9 0 37 -28 62 -62z
m-649 -289 c34 -9 37 -12 25 -26 -9 -12 -10 -17 -2 -20 10 -3 -71 -160 -96
-186 -4 -5 -24 -5 -44 -1 -34 6 -37 9 -31 31 4 16 2 22 -5 18 -6 -4 12 39 40
94 28 56 56 101 63 101 7 0 29 -5 50 -11z m-639 -72 c24 -4 48 -48 35 -64 -7
-7 -6 -13 1 -18 23 -14 6 -22 -55 -24 -46 -1 -67 2 -70 11 -6 17 -13 97 -9
101 4 3 62 -1 98 -6z m-9938 -139 c-4 -51 -9 -109 -11 -128 -4 -37 -17 -206
-18 -227 0 -7 -30 -24 -66 -39 -36 -15 -72 -32 -78 -37 -19 -14 -16 8 2 23 23
19 18 32 -6 19 -18 -9 -16 -4 9 27 40 50 85 150 118 261 34 116 38 134 43 181
0 6 4 12 7 12 4 0 4 -42 0 -92z m10097 0 c18 -23 30 -49 30 -67 0 -23 7 -32
34 -45 18 -9 34 -21 34 -28 5 -46 5 -74 1 -82 -5 -8 -43 32 -63 68 -9 16 -9
18 4 13 11 -4 14 -2 11 8 -3 8 -11 12 -18 9 -7 -3 -33 23 -59 58 -41 54 -45
64 -29 70 9 3 12 7 6 7 -7 1 -15 8 -18 17 -12 30 36 10 67 -28z m-9120 5 c21
-42 14 -77 -25 -132 l-35 -50 -25 27 c-36 39 -31 72 20 131 24 28 46 51 48 51
2 0 10 -12 17 -27z m9997 -17 c14 -2 88 -18 164 -35 77 -17 145 -31 152 -31 7
0 25 -5 39 -10 22 -8 25 -13 16 -24 -9 -10 -9 -15 -1 -18 7 -2 -3 -23 -22 -48
-57 -75 -105 -162 -124 -223 -13 -41 -22 -56 -32 -52 -8 3 -55 7 -106 10 -313
17 -322 19 -377 68 -47 42 -129 173 -98 156 21 -11 21 -10 5 12 -24 35 -20 38
23 17 60 -30 124 -36 293 -29 l37 1 -15 36 c-15 36 -24 133 -16 167 3 11 11
16 21 13 9 -3 27 -7 41 -10z m-6966 -103 c-6 -2 -20 -10 -30 -18 -18 -14 -17
-14 11 -15 29 0 29 -1 -19 -31 -47 -30 -105 -58 -220 -108 -27 -11 -50 -21
-52 -21 -10 0 0 61 19 118 18 54 24 62 46 63 14 0 33 2 41 3 8 2 56 7 105 11
50 4 92 9 94 11 2 2 7 1 10 -2 3 -4 1 -9 -5 -11z m526 -19 c0 -12 7 -56 15
-96 15 -68 26 -178 19 -178 -2 0 -43 20 -91 44 -80 40 -111 51 -196 70 -25 6
-27 9 -15 23 10 12 10 17 1 20 -8 3 -4 20 13 54 14 27 26 59 27 70 1 19 7 20
114 18 110 -2 113 -3 113 -25z m-4111 -141 c41 -176 41 -189 -6 -208 -20 -8
-37 -14 -38 -13 -12 15 -70 300 -65 322 6 31 59 63 71 42 4 -6 21 -70 38 -143z
m3878 -222 c72 -37 133 -127 130 -192 -2 -30 -7 -37 -46 -55 -44 -21 -45 -22
-47 -74 -1 -46 2 -57 24 -77 15 -14 39 -27 55 -30 26 -5 27 -7 11 -24 -16 -18
-16 -19 -1 -19 21 0 22 -16 2 -24 -17 -6 -40 -53 -55 -112 -7 -31 -17 -45 -38
-53 -36 -15 -72 -21 -72 -13 -1 4 -2 57 -4 117 -2 61 -10 144 -19 185 -43 210
-63 342 -58 386 2 17 75 8 118 -15z m6839 0 c22 -1 49 -45 38 -62 -3 -6 0 -16
6 -24 10 -12 8 -15 -11 -16 -13 0 -48 -2 -76 -4 -49 -4 -53 -3 -54 18 -1 12
-3 39 -5 60 l-3 37 42 -4 c23 -2 51 -5 63 -5z m-11190 -245 c-1 -66 3 -80 36
-145 21 -39 33 -71 27 -71 -8 0 -7 -5 1 -15 18 -21 12 -25 -58 -31 -57 -6 -61
-5 -77 20 -24 37 -22 131 4 199 11 29 61 117 66 117 1 0 2 -33 1 -74z m429
-198 c-4 -46 -8 -94 -10 -108 -3 -14 -7 -43 -10 -65 -3 -22 -8 -51 -10 -65 -3
-14 -8 -41 -11 -60 -3 -19 -7 -36 -9 -38 -6 -7 -75 172 -75 197 0 14 16 50 35
80 19 29 35 55 35 57 0 7 52 84 57 84 3 0 2 -37 -2 -82z m11415 2 c37 -80 33
-109 -17 -124 -19 -6 -26 0 -47 41 -29 58 -30 113 -1 124 35 14 41 10 65 -41z
m3063 -86 c38 -8 71 -14 74 -14 7 0 -3 -106 -11 -119 -4 -6 -19 -6 -39 -1 -17
5 -45 11 -62 14 -90 16 -86 12 -81 72 5 63 12 78 35 69 9 -3 47 -13 84 -21z
m-14271 -94 c76 -54 84 -62 82 -90 -2 -32 -30 -83 -43 -78 -4 2 -43 30 -87 63
-66 49 -80 65 -79 85 2 33 22 80 34 80 5 0 47 -27 93 -60z m11315 -37 c25 -54
47 -112 49 -130 2 -26 -2 -33 -27 -44 -16 -6 -32 -10 -34 -7 -16 16 -101 204
-94 208 4 3 4 12 -1 20 -7 11 -1 19 23 32 18 9 33 17 35 18 2 0 24 -44 49 -97z
m3182 85 l50 -11 -3 -41 c-2 -23 -4 -51 -4 -63 -2 -17 -7 -21 -24 -17 -13 2
-39 7 -58 10 -48 9 -58 19 -54 57 9 84 10 84 93 65z m391 -84 c19 -4 40 -8 45
-8 13 -1 14 -51 3 -94 -8 -28 -13 -33 -31 -28 -12 3 -41 8 -64 12 l-43 7 5 54
c5 64 11 75 33 69 10 -2 33 -8 52 -12z m-2302 -72 c24 -6 45 -12 47 -14 7 -8
8 -46 0 -81 -5 -28 -11 -36 -24 -33 -62 18 -132 34 -158 35 -8 1 -10 17 -7 53
3 28 7 54 9 58 5 7 45 2 133 -18z m-8758 -100 l0 -58 -65 -26 c-74 -29 -66
-35 -71 58 l-2 41 62 20 c33 12 64 22 69 22 4 1 7 -25 7 -57z m6586 -99 c81
-167 86 -194 38 -219 -18 -10 -35 -16 -37 -14 -20 21 -134 282 -135 306 -1 28
17 45 65 63 1 1 32 -61 69 -136z m1043 -20 c19 -38 35 -84 37 -105 3 -33 0
-37 -28 -47 -17 -6 -32 -11 -33 -11 -8 0 -75 156 -71 165 2 7 0 18 -4 26 -6 9
-1 17 18 25 43 19 46 18 81 -53z m3565 -664 c2 -2 6 -17 9 -34 7 -41 35 -151
54 -205 8 -25 16 -53 19 -64 2 -10 9 -25 16 -34 11 -13 11 -14 -1 -7 -11 6
-13 2 -8 -21 10 -44 -78 144 -112 239 -32 91 -32 139 0 134 10 -2 20 -5 23 -8z
m-11928 -181 c-6 -52 -17 -131 -22 -149 -3 -9 -17 -22 -32 -27 -29 -12 -317
-112 -342 -119 -8 -3 21 16 65 41 44 25 78 46 75 46 -3 0 -36 -11 -74 -25 -38
-14 -71 -24 -72 -22 -2 1 27 18 64 37 107 56 233 143 287 199 28 28 51 51 52
51 1 0 0 -15 -1 -32z m12163 -362 l52 -18 -6 -42 c-11 -76 -26 -146 -34 -151
-12 -7 -97 123 -136 210 -19 42 -30 73 -24 69 8 -4 9 1 4 17 -6 19 1 15 42
-21 27 -25 73 -53 102 -64z m-14381 -81 c21 -45 14 -85 -18 -122 -26 -29 -28
-36 -17 -48 8 -7 15 -36 16 -64 l1 -50 -67 5 c-37 3 -71 8 -75 10 -5 3 -8 30
-8 60 0 56 2 58 49 54 17 -1 21 2 15 11 -19 31 -9 65 30 107 23 24 43 48 44
53 6 16 19 10 30 -16z m1424 -5 c8 0 21 -78 34 -206 l7 -62 -42 8 c-49 9 -55
13 -57 43 -1 12 -4 36 -8 52 -3 17 -9 63 -13 104 l-6 73 39 -6 c21 -3 42 -5
46 -6z m-1869 -307 c-1 -31 -7 -59 -13 -63 -5 -3 -49 -7 -97 -9 -49 -1 -100
-4 -115 -5 -27 -3 -28 -2 -28 43 0 25 4 52 9 59 5 8 39 15 92 19 46 3 85 6 86
7 1 1 17 3 36 4 l33 2 -3 -57z m14102 -66 c3 -35 1 -38 -18 -33 -12 3 -30 6
-39 6 -24 0 -21 56 5 99 l20 33 14 -33 c8 -19 16 -51 18 -72z m666 25 c17 -37
33 -81 35 -98 4 -27 0 -34 -28 -47 l-32 -16 -38 77 c-43 89 -45 130 -8 149 13
6 28 9 32 7 5 -3 22 -36 39 -72z m-3799 11 c9 -3 19 -16 22 -29 6 -21 10 -23
44 -18 64 10 69 8 47 -16 -18 -20 -18 -21 -1 -14 30 12 14 -18 -24 -44 -18
-12 -56 -29 -84 -37 -67 -20 -75 -10 -70 86 4 79 9 93 33 84 9 -4 23 -9 33
-12z m4126 -161 c74 -111 89 -137 73 -128 -14 9 -14 0 0 -26 10 -18 8 -19 -13
-12 -21 7 -195 51 -228 58 -20 4 -61 83 -63 120 -2 24 5 34 30 48 l31 19 13
-31 c8 -16 16 -30 19 -30 3 0 18 21 33 47 15 25 32 42 36 37 4 -5 36 -51 69
-102z m-978 -2 c0 -30 -4 -40 -16 -40 -14 0 -15 2 -3 17 11 12 11 17 2 20 -10
4 -10 9 0 24 6 10 13 19 14 19 2 0 3 -18 3 -40z m-13525 -715 c13 -24 23 -54
22 -74 -2 -30 -7 -34 -72 -62 -67 -28 -102 -37 -80 -21 6 4 16 15 23 24 12 14
10 16 -9 11 l-23 -6 22 23 c35 38 53 85 49 133 -2 24 -8 50 -12 58 -4 8 6 1
24 -16 17 -16 42 -48 56 -70z m-330 -235 c-2 -23 -5 -25 -51 -22 -79 5 -83 8
-79 50 5 42 15 79 40 137 l17 40 38 -90 c20 -50 36 -101 35 -115z m715 -355
c34 -84 33 -110 -7 -129 -19 -9 -36 -16 -38 -16 -10 0 -47 99 -51 137 -4 38
-2 42 23 51 46 17 50 14 73 -43z m14030 -37 c8 -13 15 -36 16 -53 2 -26 -6
-36 -63 -79 l-64 -49 -27 28 c-17 18 -22 30 -14 33 8 2 9 9 3 21 -8 14 3 27
57 69 37 28 69 52 72 52 3 0 12 -10 20 -22z m34 -310 c-2 -18 -6 -85 -9 -148
-3 -63 -10 -135 -14 -160 -8 -42 -9 -43 -11 -12 -4 51 -4 52 -18 61 -10 6 -14
36 -14 108 -1 93 1 101 28 141 16 23 32 41 35 42 3 0 4 -15 3 -32z m-1164
-978 c28 -11 63 -29 78 -40 40 -29 329 -88 439 -89 l43 -1 -4 -56 c-2 -30 -6
-57 -8 -59 -2 -3 -58 7 -124 21 -65 14 -130 28 -144 30 -14 3 -39 9 -57 13
-17 5 -34 7 -36 5 -2 -3 -1 -22 3 -44 10 -57 -6 -130 -34 -159 -28 -28 -69
-30 -114 -7 -35 18 -82 71 -83 94 -1 9 -2 28 -2 42 -1 14 6 46 15 71 l17 46
-57 13 c-31 8 -64 12 -72 11 -10 -2 -12 1 -5 8 6 6 20 12 32 14 33 5 40 17 10
17 -39 0 -41 17 -3 24 40 8 59 27 50 50 -8 20 -5 20 56 -4z m-90 -1164 c0 -9
-30 -14 -35 -6 -4 6 3 10 14 10 12 0 21 -2 21 -4z m49 -61 c12 -13 13 -18 3
-22 -10 -4 -10 -8 -2 -19 11 -13 6 -34 -8 -34 -4 0 -16 14 -25 30 -12 20 -14
30 -6 30 8 0 8 4 -1 15 -7 9 -19 14 -26 11 -7 -3 -16 0 -20 5 -11 18 67 3 85
-16z"/>
<path d="M7766 18443 c-23 -31 -29 -164 -8 -171 7 -2 13 -18 13 -35 l2 -32 6
35 c4 19 8 75 10 124 1 49 4 93 7 98 13 21 -13 4 -30 -19z"/>
<path d="M10185 13178 c-14 -20 -242 -380 -264 -416 -4 -8 -15 -10 -26 -6 -17
7 -17 8 -1 14 16 5 -48 52 -175 128 l-36 22 3 -23 c4 -32 52 -127 67 -132 14
-5 93 -14 125 -14 12 -1 22 -6 22 -12 0 -9 -112 -196 -137 -228 -8 -11 -42 37
-56 77 l-14 43 -31 -26 c-24 -20 -32 -35 -32 -58 1 -39 15 -59 58 -81 38 -19
37 -19 13 -54 -23 -33 -55 -83 -208 -327 -161 -256 -361 -572 -388 -615 -29
-44 -147 -231 -160 -253 -11 -18 -520 -823 -827 -1307 -103 -162 -205 -323
-225 -356 -21 -34 -159 -253 -308 -488 -148 -234 -277 -437 -285 -450 -34 -56
-166 -266 -206 -326 -23 -36 -122 -193 -221 -350 -99 -157 -309 -490 -468
-740 -425 -672 -380 -594 -362 -632 34 -74 47 -112 47 -142 0 -26 -5 -34 -32
-44 -17 -6 -33 -11 -34 -9 -1 1 -13 29 -26 62 -13 33 -28 59 -32 58 -4 -1 -88
-129 -187 -285 -98 -156 -182 -287 -187 -293 -4 -5 -11 -17 -15 -25 -3 -8 -47
-78 -96 -155 -82 -128 -238 -373 -336 -529 -74 -117 -250 -396 -277 -439 -15
-23 -41 -64 -58 -92 -17 -27 -94 -149 -171 -270 -77 -121 -174 -275 -217 -343
-42 -67 -93 -147 -112 -177 -74 -116 -130 -208 -130 -214 0 -9 89 -93 190
-181 41 -36 77 -67 80 -70 7 -8 180 -151 213 -177 17 -13 29 -33 31 -52 3 -28
1 -31 -18 -29 -18 3 -21 -2 -23 -35 -1 -43 7 -51 65 -54 l42 -3 0 38 c0 21 -5
43 -12 50 -8 8 -8 12 -1 12 8 0 134 -90 153 -110 48 -50 787 -540 815 -540 2
0 37 -20 77 -44 181 -109 615 -327 864 -435 584 -251 1260 -460 1834 -566 41
-8 86 -16 100 -19 14 -3 41 -7 60 -10 19 -3 46 -8 60 -11 13 -2 42 -7 65 -10
22 -3 47 -8 55 -10 8 -2 40 -6 71 -10 31 -3 65 -7 75 -9 11 -2 46 -7 79 -11
69 -8 72 -9 56 -29 -9 -11 -1 -22 41 -57 29 -23 58 -48 63 -54 6 -6 33 -17 60
-24 28 -8 76 -26 107 -41 l58 -26 -5 25 c-9 47 3 76 38 88 35 12 105 26 109
21 2 -2 17 7 35 20 30 21 36 22 190 15 271 -11 764 -5 953 12 19 2 82 6 139
10 57 4 113 8 124 11 11 2 54 6 96 10 63 5 85 12 128 40 67 44 97 56 66 25
-27 -26 -32 -50 -6 -30 11 10 14 10 9 2 -9 -15 0 -16 79 -4 33 5 78 12 100 15
75 10 230 36 275 46 25 5 59 12 75 15 17 3 44 8 60 10 86 15 140 32 137 43 -8
39 -10 82 -4 83 4 0 49 3 100 5 l92 5 0 -25 c0 -14 4 -27 9 -31 6 -3 45 4 88
16 43 11 85 22 93 24 9 2 84 22 168 45 132 37 153 46 158 65 5 20 9 22 42 13
33 -8 61 -1 252 66 238 82 308 107 360 130 l36 15 -53 108 c-64 132 -66 163
-18 216 20 20 37 37 39 37 1 0 3 -28 4 -62 1 -104 25 -174 85 -251 18 -22 23
-21 317 110 19 9 140 67 269 130 128 63 237 111 241 106 5 -4 11 -24 15 -43 4
-19 9 -47 12 -63 7 -34 17 -41 43 -27 24 13 25 44 5 120 -8 30 -15 56 -15 57
0 1 21 14 48 29 273 156 521 309 686 423 49 34 81 50 84 43 9 -27 34 -40 99
-52 37 -7 75 -16 84 -21 35 -18 26 28 -17 92 -24 35 -44 69 -44 74 1 6 32 33
71 60 39 28 76 55 83 62 7 6 37 14 67 18 30 4 69 9 88 11 19 2 48 7 65 10 17
3 38 7 46 8 32 6 16 71 -28 115 -12 13 -12 16 2 27 16 11 16 13 -1 31 -10 10
-25 27 -33 37 -14 18 -13 19 4 13 18 -7 18 -6 2 17 -16 25 -15 25 12 21 15 -2
39 -6 54 -10 26 -7 29 -4 47 38 11 25 22 58 24 74 6 36 -22 96 -65 140 -26 27
-29 33 -13 33 17 0 17 1 0 20 -17 18 -17 20 -1 20 65 0 190 -147 188 -221 l-1
-29 27 21 c15 11 61 52 104 91 72 67 76 72 65 97 -9 20 -200 335 -212 349 -2
2 -38 -19 -82 -45 -43 -27 -105 -64 -137 -82 -53 -30 -58 -31 -53 -12 2 11 1
21 -4 23 -22 7 51 96 109 133 54 35 62 44 61 70 -1 45 -13 77 -31 89 -14 8
-24 4 -53 -24 -36 -34 -36 -35 -26 -7 6 16 7 27 1 27 -13 0 -2 29 26 66 l22
31 -260 419 -261 420 -104 -29 c-58 -16 -106 -27 -108 -25 -2 2 -6 25 -8 51
l-3 47 70 21 c39 11 77 22 84 24 9 4 4 18 -17 49 -17 25 -31 47 -31 51 0 3
-10 21 -23 38 -12 18 -27 41 -34 52 -7 11 -31 51 -55 88 -24 38 -52 84 -63
103 -11 19 -63 102 -115 185 -52 84 -102 164 -110 178 -9 14 -31 51 -51 81
-19 30 -38 60 -42 66 -5 9 14 11 70 8 42 -2 83 -6 92 -9 12 -4 21 8 34 45 10
27 37 78 61 113 23 34 41 68 38 75 -2 6 2 12 10 13 18 1 -27 18 -65 25 -18 3
-81 16 -140 28 -92 20 -109 22 -114 9 -6 -14 1 -79 13 -119 5 -19 1 -22 -33
-25 -21 -2 -45 -3 -53 -1 -8 1 -46 53 -85 115 -61 99 -69 117 -67 155 3 38 1
42 -20 42 -13 0 -28 4 -34 8 -10 7 -55 73 -79 117 -17 30 -195 316 -216 347
-10 15 -46 73 -80 129 -58 96 -61 105 -50 134 21 58 14 98 -29 163 -22 34 -41
62 -43 62 -2 0 -2 -37 0 -82 2 -59 0 -79 -7 -68 -39 56 -270 434 -270 441 0 5
-4 9 -9 9 -5 0 -11 8 -14 18 -6 15 -264 433 -284 457 -5 6 -14 21 -20 35 -7
14 -40 67 -73 118 -33 51 -60 97 -60 103 0 5 -3 9 -8 9 -4 0 -12 9 -17 20 -6
12 -39 67 -74 123 -35 56 -116 185 -179 287 -63 102 -154 247 -201 322 -47 75
-90 145 -96 155 -5 10 -80 131 -166 268 -86 138 -342 549 -569 915 -227 366
-418 671 -424 679 -9 11 -4 13 27 9 35 -4 48 4 28 16 -5 3 -7 15 -4 26 3 11 1
20 -4 20 -5 0 -17 15 -28 32 l-19 33 -10 -50 -11 -49 -99 159 c-54 88 -106
171 -115 185 -23 34 -433 694 -446 718 -5 10 -40 65 -76 122 -37 58 -119 191
-184 295 -64 105 -126 202 -136 217 -10 15 -19 29 -19 32 0 5 -46 76 -55 84
-1 2 -11 -7 -20 -20z m-369 -973 c27 -19 49 -43 49 -53 1 -9 4 -22 8 -28 3 -6
-4 -21 -17 -33 l-24 -23 -50 34 c-46 30 -50 36 -47 68 3 40 14 70 24 70 4 0
30 -16 57 -35z m204 -293 l0 -52 -42 7 c-24 5 -86 8 -139 8 l-97 -1 2 73 1 72
40 -23 40 -22 80 32 80 33 17 -37 c10 -20 18 -61 18 -90z m-489 -682 c1 -11 2
-23 3 -27 5 -18 18 -117 20 -144 2 -29 1 -30 -32 -26 -18 3 -35 7 -36 8 -7 8
-26 137 -26 172 0 36 1 37 35 37 28 0 35 -4 36 -20z m656 -621 c8 -24 16 -61
18 -82 2 -31 0 -37 -14 -33 -14 4 -61 13 -116 21 -11 2 -29 4 -39 4 -18 1 -18
2 -1 21 17 19 17 20 1 20 -10 0 -14 5 -10 11 10 17 127 90 137 86 6 -2 17 -23
24 -48z m-21 -336 c-7 -68 -15 -123 -21 -140 -3 -9 -17 -8 -57 3 -63 19 -133
55 -103 53 45 -3 49 2 18 21 -38 23 -43 33 -10 21 36 -14 97 12 137 58 19 22
37 40 39 41 2 0 1 -26 -3 -57z m-1482 -556 c16 -39 44 -105 63 -145 18 -41 33
-75 33 -78 0 -6 80 -197 133 -317 10 -21 13 -36 7 -32 -13 8 -13 -1 0 -26 15
-27 8 -24 -41 17 -38 31 -51 55 -114 208 -74 179 -133 300 -168 350 -15 21
-17 30 -7 36 9 5 9 9 1 14 -17 11 -13 22 12 34 42 21 51 14 81 -61z m-129
-669 c70 -51 137 -100 148 -108 12 -8 55 -41 95 -73 l72 -58 0 -54 c0 -51 -1
-54 -27 -57 -51 -6 -192 11 -221 26 -38 20 -76 66 -109 130 -14 28 -44 78 -66
110 l-40 59 -50 -52 c-54 -56 -72 -60 -73 -15 -1 36 111 198 131 190 8 -3 70
-47 140 -98z m335 -428 l25 -7 -28 -8 c-21 -6 -33 -3 -45 9 -15 15 -15 16 3
15 11 -1 31 -4 45 -9z m0 -39 c25 -7 25 -7 -7 -19 -29 -10 -34 -9 -43 9 -12
21 1 24 50 10z m2720 -979 c-6 -2 -6 -10 0 -22 7 -13 6 -19 -3 -23 -9 -3 -13
4 -11 27 2 49 4 52 14 36 6 -10 6 -16 0 -18z m1864 -419 c-17 -33 -18 -47 -3
-37 6 3 -1 -12 -15 -35 -14 -22 -26 -43 -26 -46 0 -8 -91 -147 -123 -188 -28
-36 -31 -37 -41 -20 -21 36 -15 73 18 107 52 54 89 98 145 174 30 39 55 72 57
72 1 0 -4 -12 -12 -27z m-7044 -722 c-13 -24 -13 -34 -1 -26 8 4 -54 -141 -64
-153 -2 -2 -11 13 -20 33 -10 19 -26 42 -37 49 -18 13 -18 14 -1 20 17 7 17 8
0 20 -15 12 -9 17 55 44 40 17 74 31 76 32 1 0 -2 -9 -8 -19z m201 -197 c18
-9 41 -13 58 -9 26 6 27 4 25 -30 -7 -82 -94 -154 -214 -175 -95 -17 -128 -35
-134 -74 -7 -45 -3 -90 9 -98 6 -5 3 -8 -6 -8 -9 0 -22 6 -29 14 -18 23 -183
82 -280 101 -14 3 -36 7 -50 10 -45 9 -114 18 -142 18 -27 -1 -27 0 -10 25 16
25 16 26 -1 19 -9 -3 -17 -2 -17 3 0 6 4 10 8 10 5 0 31 33 59 73 28 39 60 80
71 90 20 18 20 18 16 -32 -4 -41 -2 -51 13 -59 20 -10 274 -8 368 2 111 13
187 81 195 176 0 9 7 4 16 -12 8 -15 28 -35 45 -44z m813 -381 c0 -15 -5 -28
-10 -30 -5 -2 -8 15 -6 38 5 44 18 38 16 -8z m-1159 -60 c4 -43 9 -91 10 -108
2 -16 6 -61 10 -100 8 -81 8 -72 6 -106 -1 -23 -5 -26 -31 -24 -17 1 -33 5
-36 8 -7 6 -11 37 -18 127 -4 41 -9 95 -13 120 -3 25 -6 65 -6 90 -1 38 2 47
23 57 43 22 47 17 55 -64z m513 7 c34 -27 35 -66 2 -115 -15 -22 -34 -53 -43
-70 -32 -59 -32 -59 -66 -39 -26 15 -30 23 -27 50 3 29 91 194 103 194 3 0 16
-9 31 -20z m-372 -129 c3 -35 1 -42 -6 -29 -6 10 -13 39 -15 65 -4 38 -3 44 6
29 6 -10 13 -39 15 -65z m1642 -73 c-3 -7 -13 -15 -24 -17 -16 -3 -17 -1 -5
13 16 19 34 21 29 4z m-450 -59 c1 -32 -2 -38 -12 -29 -8 6 -12 25 -11 43 3
40 3 39 14 33 5 -3 9 -24 9 -47z m450 19 c-3 -7 -15 -14 -29 -16 -24 -4 -24
-3 -4 12 24 19 38 20 33 4z m1238 -110 c-18 -25 -21 -42 -6 -33 13 8 1 -23
-22 -57 -10 -14 -18 -29 -18 -32 0 -8 -103 -165 -129 -196 -20 -23 -22 -24
-34 -8 -18 23 -13 76 10 96 10 9 43 46 73 82 62 73 60 70 101 128 17 23 33 42
35 42 3 0 -2 -10 -10 -22z m-3050 -336 c-3 -2 0 -14 5 -25 6 -11 12 -32 13
-48 2 -27 -3 -31 -93 -69 -52 -22 -98 -37 -102 -33 -13 14 -38 83 -30 83 4 0
7 9 7 21 -1 16 16 28 89 59 66 28 93 36 103 28 7 -6 10 -13 8 -16z m8108 -339
c-1 -24 -9 -29 -93 -58 l-93 -32 -19 31 c-12 19 -15 34 -9 40 6 6 6 14 -1 23
-13 15 -21 11 101 52 l85 28 15 -29 c9 -15 15 -40 14 -55z m244 41 c17 -11 20
-19 13 -28 -7 -9 -7 -16 0 -23 7 -7 -4 -25 -34 -58 -44 -46 -45 -47 -70 -31
-34 23 -30 62 13 114 39 47 46 49 78 26z m129 -203 c1 -23 -8 -42 -35 -71 -40
-45 -47 -47 -81 -21 -16 12 -20 20 -12 25 8 5 9 12 2 20 -7 8 4 26 36 59 42
44 47 47 67 34 13 -9 22 -26 23 -46z m199 -117 l110 -26 -3 -51 c-1 -28 -7
-55 -12 -60 -6 -6 -36 -3 -78 7 -37 9 -77 18 -88 20 -11 2 -41 10 -67 16 -52
13 -57 24 -42 100 8 37 -4 37 180 -6z m-441 -195 c45 -18 60 -29 60 -44 0 -11
4 -23 9 -26 4 -4 -1 -16 -13 -28 -33 -33 -101 -28 -188 14 -39 19 -75 40 -78
46 -4 6 -17 14 -29 19 -19 8 -18 9 9 10 l30 0 -25 21 -25 20 95 -4 c71 -3 110
-10 155 -28z m126 -76 c12 -15 12 -16 -4 -10 -10 4 -23 7 -28 7 -6 0 -7 5 -4
10 9 15 21 12 36 -7z m-5 -38 c14 -13 13 -15 -5 -15 -21 0 -35 13 -24 24 9 9
13 8 29 -9z m-1865 -72 c26 -75 22 -89 -32 -112 -26 -12 -52 -21 -58 -21 -16
0 -33 38 -37 82 -4 38 -3 39 49 63 28 14 55 25 59 25 3 0 12 -17 19 -37z
m-2027 -261 c3 -31 -1 -36 -111 -112 -63 -44 -116 -80 -118 -80 -10 0 -43 80
-35 85 4 3 6 13 3 23 -3 14 18 34 89 83 152 106 141 102 156 65 8 -17 15 -46
16 -64z m2882 36 c45 -49 62 -80 69 -131 9 -56 1 -60 -20 -11 l-15 35 -31 -18
c-17 -10 -56 -41 -87 -70 l-56 -52 -30 26 c-16 14 -39 28 -50 33 -68 25 -68
24 4 -76 50 -68 67 -100 59 -105 -10 -6 -10 -11 -1 -22 11 -12 7 -17 -20 -26
-17 -6 -35 -8 -39 -4 -32 35 -156 234 -149 238 7 4 6 13 0 25 -8 15 -5 20 20
28 18 7 32 7 35 1 12 -18 22 -9 18 15 -3 16 4 34 24 56 26 29 36 33 108 41 63
6 83 13 94 29 19 28 32 25 67 -12z m2037 -178 c3 -11 2 -18 -2 -15 -5 2 -8 -8
-9 -23 -1 -42 -13 -92 -23 -92 -4 0 -14 8 -21 18 -7 10 -24 26 -38 35 l-24 17
24 0 25 1 -22 18 -22 19 38 6 c21 3 44 13 51 21 16 19 17 19 23 -5z m-2355
-230 c-48 -26 -58 -41 -19 -30 17 5 35 11 41 15 5 3 10 4 10 1 0 -3 -18 -17
-41 -31 -54 -35 -109 -92 -126 -132 -7 -18 -16 -33 -20 -33 -4 0 -56 12 -115
26 -94 22 -122 35 -87 40 30 4 31 7 5 18 l-29 13 49 18 c304 108 420 141 332
95z m2363 -89 c6 -60 6 -71 2 -68 -3 4 -50 -4 -108 -19 -14 -3 -10 4 14 25
l35 31 -33 -10 c-32 -9 -33 -9 -16 9 33 37 103 59 106 32z m-2253 -76 c18 -5
21 -10 12 -20 -7 -9 -8 -15 -1 -19 6 -4 -2 -29 -21 -64 -17 -31 -40 -74 -50
-94 -22 -42 -22 -42 -67 -27 -25 9 -30 15 -26 30 4 10 2 19 -4 19 -5 0 9 33
31 73 66 116 68 118 86 113 9 -2 27 -7 40 -11z m-763 -96 l43 -40 63 16 c35 9
83 19 108 22 l46 5 -24 -25 -23 -26 23 6 c21 4 20 1 -12 -29 -57 -52 -297
-258 -301 -258 -2 0 -5 17 -7 38 -1 20 -4 53 -6 72 -2 19 -6 93 -11 164 l-7
128 33 -17 c18 -9 52 -35 75 -56z m-3012 -27 c14 -4 17 -16 17 -69 0 -35 -3
-62 -7 -60 -5 3 -35 8 -68 12 -33 3 -61 7 -62 8 -2 3 -5 69 -4 95 1 22 5 23
54 21 28 -1 60 -5 70 -7z m4095 -118 c64 -44 53 -53 -15 -13 -55 31 -37 7 25
-34 57 -38 38 -43 -25 -7 l-32 19 -36 -42 c-28 -33 -35 -37 -30 -18 4 14 3 21
-2 18 -6 -4 -3 23 5 58 10 40 21 65 29 65 8 0 44 -21 81 -46z m328 -332 c-1
-15 -18 -61 -38 -103 l-36 -77 -77 2 c-88 3 -94 8 -101 85 -3 42 -1 50 24 68
15 11 47 23 72 27 87 13 115 18 117 20 1 1 11 2 21 3 15 1 19 -4 18 -25z
m-3696 -57 c34 -84 33 -110 -7 -129 -19 -9 -36 -16 -38 -16 -10 0 -47 99 -51
137 -4 38 -2 42 23 51 46 17 50 14 73 -43z m4008 -142 c-10 -2 -26 -2 -35 0
-10 3 -2 5 17 5 19 0 27 -2 18 -5z m0 -40 c-10 -2 -26 -2 -35 0 -10 3 -2 5 17
5 19 0 27 -2 18 -5z"/>
<path d="M13439 7123 c-13 -16 -12 -17 4 -4 9 7 17 15 17 17 0 8 -8 3 -21 -13z"/>
<path d="M9276 5423 c-6 -14 -5 -15 5 -6 7 7 10 15 7 18 -3 3 -9 -2 -12 -12z"/>
<path d="M15816 3314 c-8 -21 -4 -25 14 -14 11 7 12 12 4 20 -8 8 -13 7 -18
-6z"/>
<path d="M16005 3280 c4 -6 11 -8 16 -5 14 9 11 15 -7 15 -8 0 -12 -5 -9 -10z"/>
<path d="M15865 3233 c2 -16 7 -49 10 -74 3 -26 12 -55 20 -65 12 -17 14 -16
20 17 5 27 0 48 -20 92 -15 31 -29 57 -31 57 -2 0 -2 -12 1 -27z"/>
<path d="M9453 1085 c0 -8 4 -15 9 -15 4 0 8 4 8 9 0 6 -4 12 -8 15 -5 3 -9
-1 -9 -9z"/>
<path d="M9465 1039 c6 -32 13 -34 13 -4 0 14 -4 25 -9 25 -4 0 -6 -10 -4 -21z"/>
</g>
</svg>
