<?xml version="1.0" encoding="UTF-8"?>
<!DOCTYPE svg PUBLIC "-//W3C//DTD SVG 1.1//EN" "http://www.w3.org/Graphics/SVG/1.1/DTD/svg11.dtd">
<!-- Creator: CorelDRAW X7 -->
<svg xmlns="http://www.w3.org/2000/svg" xml:space="preserve" width="297mm" height="210mm" version="1.1" style="shape-rendering:geometricPrecision; text-rendering:geometricPrecision; image-rendering:optimizeQuality; fill-rule:evenodd; clip-rule:evenodd"
viewBox="0 0 29700 21000"
 xmlns:xlink="http://www.w3.org/1999/xlink">
 <defs>
  <style type="text/css">
   <![CDATA[
    .fil0 {fill:none}
    .fil1 {fill:#DA241A}
    .fil2 {fill:#1E1A16;fill-rule:nonzero}
   ]]>
  </style>
 </defs>
 <g id="Camada_x0020_1">
  <metadata id="CorelCorpID_0Corel-Layer"/>
  <polygon class="fil0" points="22678,12709 7022,12709 7022,8292 22678,8292 "/>
  <g id="_2292331811376">
   <g>
    <path class="fil1" d="M8194 12056l1 13 23 2 0 -7 0 0 -1 -13 -4 0 3 -4c274,215 609,358 974,401l-5 8 27 22 -2 1c22,5 46,13 49,20 2,5 4,12 7,23 1,7 2,9 5,8 -7,-15 -11,-28 -12,-37 2,4 4,12 7,23 1,6 2,9 5,8 -8,-17 -12,-30 -13,-40 1,-6 3,-9 7,-11 10,-4 21,-4 30,-8 5,-1 8,-4 11,-7 39,2 78,4 117,4 79,0 156,-5 232,-14 6,-6 16,-12 29,-18 -5,3 -9,8 -12,15 3,-2 7,-4 12,-6 -3,2 -5,4 -7,6 56,-7 111,-16 166,-28l-6 -12 4 -1 -4 -8 45 -3 1 15c24,-6 48,-12 72,-19l0 0 3 -1c13,-3 25,-7 38,-11l2 -10 15 5c47,-15 93,-31 139,-49 -9,-14 -18,-34 -26,-54l3 -3 -3 -6 18 -20 0 4 0 8 0 1 0 1 0 1 0 0 0 1c1,22 2,35 23,60 62,-25 122,-53 181,-85l8 36 13 -5 -2 -6 2 -1 -8 -31c63,-34 123,-71 181,-112l5 10 43 10c-1,-2 -3,-5 -4,-7l4 1c-6,-12 -14,-21 -21,-33 13,-9 26,-19 39,-29 21,-3 42,-3 62,-10 -1,-2 -2,-3 -3,-5l3 -1c-6,-11 -11,-17 -15,-20l7 -5 0 0c-5,-6 -12,-14 -21,-25 11,-1 22,0 31,5 6,-11 10,-21 11,-30 -1,-13 -9,-25 -23,-37 4,0 8,1 12,3 -4,-4 -8,-8 -12,-12 19,1 35,17 49,48l-3 4 2 4c14,-12 28,-24 42,-37l0 -2 2 -1 -2 -8 0 0 -51 -83 0 1c0,2 1,4 2,7 -13,8 -33,20 -60,35 0,-4 1,-7 4,-11l-4 2c1,-13 14,-26 40,-39 -1,-4 -2,-8 -2,-11 -3,-27 -12,-19 -25,-3 0,-5 1,-10 4,-14l-4 5c0,-9 4,-17 13,-24l-117 -187 -47 13 -3 -14 2 -1 -2 -8 37 -11 -124 -200c14,0 28,0 41,3 4,-16 13,-33 29,-51l-5 -1c2,-2 3,-4 5,-5l-72 -15c0,3 -1,7 0,11 -1,8 1,15 5,23 -7,1 -16,1 -24,1l-34 -53 5 -8 -3 -1 3 -6 -15 -3 0 0 -87 -138 0 -3 -2 -1 -9 -14 1 0c5,-7 7,-14 6,-20 0,-3 0,-7 -2,-10 -5,-11 -14,-20 -19,-31 1,3 2,6 2,11 -1,-1 -1,-3 -2,-4 2,3 3,11 3,22l0 0c0,4 0,8 -1,13l-551 -887c1,0 3,-1 4,-1 1,-1 3,-1 5,-1 3,1 5,2 7,4 0,-1 -2,-4 -6,-10 3,1 4,2 6,4 0,-2 -5,-10 -16,-25l-4 23 -253 -407 -65 103c-2,-2 -6,-4 -9,-7l11 2c-10,-8 -28,-20 -53,-34l4 9 -4 -3 14 28c9,1 21,3 37,6l-34 53c-3,-3 -6,-7 -8,-11 -3,-6 -4,-12 -6,-18 -12,8 -16,15 -14,19l0 1c-1,2 -1,4 0,5 3,8 10,13 21,16l-307 486 0 0 0 0 -516 817 15 36 -3 1 3 8 -16 7 -13 -31 -400 632c38,35 76,69 117,101l-2 2 3 3 -3 3 4 5 -12 -1 0 6 0 0zm2006 -939l1 0 -2 3c0,-1 1,-2 1,-3zm-592 26c0,-1 1,-2 2,-4 -1,2 -2,3 -2,4l0 0zm-479 -303c-1,-3 -3,-6 -5,-9 6,2 13,3 20,5l-15 4zm491 554l0 -1 3 0c-1,0 -2,1 -3,1zm360 471c-1,0 -2,0 -3,0 1,0 2,0 3,0l0 0zm-653 -81l1 -1c0,1 0,1 0,2l-1 -1zm-515 -332c0,-4 1,-7 1,-10l-1 1c0,-5 1,-8 1,-11 1,2 2,5 5,8l-5 2c1,2 3,4 5,7l-6 3zm1388 -326l1 0 -2 3c0,-1 1,-2 1,-3zm-592 26c0,-1 1,-2 2,-4 -1,2 -2,3 -2,4l0 0zm-475 -344c0,3 0,6 1,8 -20,1 -37,0 -51,-2l-3 -2c-25,-12 -22,-35 -49,-67 -8,7 -16,15 -24,24l-6 -5 4 -6 -4 -3 29 -40 63 45c14,10 27,21 40,31 0,8 0,13 1,16l-1 1zm-4 41c-1,-3 -3,-6 -5,-9 6,2 13,3 20,5l-15 4zm491 554l0 -1 3 0c-1,0 -2,1 -3,1zm-473 -675l-22 -17c1,1 -7,-21 -26,-64 -10,-24 -20,-44 -31,-59l5 -2c-2,-2 -3,-5 -5,-7l17 -7 62 147 -6 -4 6 13zm833 1146c-1,0 -2,0 -3,0 1,0 2,0 3,0l0 0zm-744 -341c-14,30 -34,61 -49,78 -2,-3 -5,-6 -7,-10l4 -4c-1,-1 -3,-3 -4,-5 21,-20 39,-43 56,-68 -6,11 -12,23 -18,34 6,-8 12,-16 18,-25zm91 260l1 -1c0,1 0,2 0,2l-1 -1zm1307 207c-6,2 -12,6 -18,13 11,-3 27,-7 40,-6 -4,-5 -9,-11 -15,-18 -7,0 -16,5 -25,15 5,-2 11,-3 18,-4zm45 21l8 -2 -4 -7c-2,3 -3,6 -4,9zm10 1c10,25 -1,20 11,48 6,-11 4,-14 4,-18l0 0 0 0 0 0 0 0c-4,-9 -9,-19 -15,-30zm38 9l2 -1 -3 -2c1,1 1,2 1,3zm-2 -5l4 -3 -9 -4c2,2 4,4 5,7zm-80 -112c0,13 -8,26 -9,39 -8,-12 -16,-18 -22,-18 5,0 10,0 14,-1 -5,-5 -10,-8 -14,-8 20,1 30,-6 31,-21 0,8 -3,16 -6,23 4,-3 6,-8 6,-14zm-297 269c5,-1 9,-2 13,-3 -4,-1 -9,-1 -15,-1l2 4zm61 -381c-1,2 -3,4 -4,6 4,1 8,2 12,2 -2,-3 -5,-5 -8,-8zm-121 338l-4 0c1,-3 3,-6 4,-9 -31,5 -46,7 -45,7l-13 10c0,2 1,5 1,8l-1 1c1,5 2,11 4,19l37 1c6,-13 12,-25 17,-37zm60 52c5,-1 9,-2 13,-3 -4,-1 -9,-1 -15,-1l2 4zm-958 -2079c-24,-6 -45,-6 -63,-2 1,-4 1,-7 2,-10l-2 1c1,-4 2,-8 2,-11 -1,-4 -2,-6 -6,-6 2,0 5,1 7,2 0,-7 -2,-10 -7,-11 9,1 18,9 24,11l36 -14c6,14 8,24 7,30l0 0c0,4 1,7 0,10zm-103 185l-17 -3 -5 -37 1 0 -1 -9 15 0 7 40 -2 0 2 9zm71 -243l-9 12 -25 -17 4 -7 -4 -2 8 -15 26 20 -4 6 4 3zm31 355l44 7 -3 -10 3 1 -10 -30c-22,13 -33,21 -34,23l9 1c-5,4 -8,7 -9,8zm-16 67c8,12 23,19 45,22l6 -40 -2 3 2 -12c-8,14 -17,23 -29,26 -10,2 -18,-1 -22,-8 4,7 12,13 22,16l0 1c-10,2 -18,-1 -22,-8zm1135 1284l2 0 -4 19 -63 -15 2 -9 -2 0 4 -18 63 14 -2 9zm-124 -59l6 -6 -6 -3 21 -23 13 9 -5 6 5 3 -21 22 -13 -8zm-76 -13l4 -1 -4 -8 44 -14 7 15 -3 1 3 8 -44 15 -7 -16zm-186 226c1,-2 2,-4 2,-6l-2 0c3,-16 13,-24 29,-23 15,0 24,-4 26,-12 16,3 31,30 28,46 0,3 0,6 0,9 1,-3 -2,-11 -8,-22 -9,1 -22,12 -39,31 -6,-9 -17,-15 -33,-20l31 45 -5 2 5 7 -14 6 -37 -55 5 -2 -5 -7 12 -6 5 7zm74 -17c4,7 8,14 9,22 0,-4 -2,-12 -8,-22l-1 0zm214 -160l13 9 20 -22 -5 -4 5 -5 -13 -9 -20 22 5 4 -5 5zm-221 340l-3 13c2,-3 8,-10 18,-20 3,4 14,9 31,13 -10,-3 -22,-14 -33,-20l2 -2c3,4 14,9 31,13 -13,-3 -28,-20 -42,-23l-7 30c1,-1 2,-2 3,-4zm-83 -21l18 5 23 -43 -4 -1 4 -8 -18 -4 -23 42 4 1 -4 8zm-74 -49l53 12c4,-17 19,-32 45,-45 -8,2 -16,4 -25,7 6,-6 15,-11 25,-16 -25,6 -57,17 -98,33l14 3 -14 6zm-83 17c3,57 6,83 7,80 21,-20 46,-41 75,-65 -4,0 -7,0 -11,0l11 -9c-13,-1 -29,3 -50,9 -11,-14 -22,-22 -32,-24l0 9 0 0zm382 -232c17,12 38,25 54,24 13,-1 16,-3 17,-11l-3 -1c2,-2 3,-4 3,-8 -8,-5 -19,-9 -31,-12 -12,-3 -26,-2 -40,-1 4,3 8,5 12,8 -4,0 -8,1 -12,1zm78 18c-1,2 -3,4 -4,6 4,1 8,2 12,2 -2,-3 -5,-5 -8,-8zm-1814 -492c-4,1 -10,14 -19,38 -8,-17 -14,-24 -20,-22l10 -4c-3,-4 -7,-6 -10,-5l39 -16c-2,1 -5,5 -8,12l8 -3zm-101 52c-1,0 -1,1 -2,1 0,-3 1,-7 2,-10 -10,4 -27,39 -37,44 2,-1 5,-1 9,0 -3,4 -7,8 -9,9 20,-3 111,17 118,34 3,6 7,17 10,33 1,9 3,12 6,11 -9,-22 -14,-40 -16,-53 3,6 7,17 10,33 1,9 3,12 6,11 -10,-24 -15,-43 -16,-56 0,-8 4,-14 9,-16 13,-5 29,-5 42,-10 14,-6 24,-18 29,-34 -1,1 -3,1 -5,2 2,-4 4,-7 5,-11 -15,7 -26,1 -34,-16 0,19 -9,32 -27,39 -10,5 -44,7 -100,5 -1,-2 -1,-5 -2,-8 1,-3 1,-5 2,-8zm47 83l-1 0 8 78 16 0 -1 -9 1 0 -8 -85 -16 7 1 9zm-34 175l-3 1 8 20 44 -19 -3 -7 3 -2 -8 -19 -44 18 3 8zm137 -135l-4 6 15 10 24 -40 -3 -3 3 -6 -14 -10 -25 40 4 3zm1356 350l3 8 -26 11 -9 -20 3 -1 -3 -8 27 -11 8 20 -3 1zm-455 46l3 7 -53 36 -8 -19 2 -2 -2 -7 53 -37 8 20 -3 2zm-272 154l2 18 30 3 0 -19 0 0 0 -9 -32 -3 1 10 -1 0zm170 107l-3 2 12 29 18 -7 -3 -8 3 -1 -12 -30 -18 8 3 7zm-500 -644l11 -11 3 5 -14 6zm1313 -103l1 -1c0,1 0,1 0,2l-1 -1zm-516 -332c1,-4 1,-7 1,-10l-1 1c1,-5 1,-8 1,-11 1,2 3,5 6,8l-5 2c1,2 2,4 5,7l-7 3zm-884 451l-3 -11 3 2c-1,-5 -2,-9 -3,-13l-6 7 5 3 -5 6 9 6zm87 -7l11 -11 3 5 -14 6zm1221 -363c-13,30 -34,61 -48,78 -3,-3 -5,-6 -7,-10l3 -4c-1,-1 -2,-3 -3,-5 20,-20 39,-43 55,-68 -5,11 -11,23 -18,34 6,-8 12,-16 18,-25zm92 260l1 -1c0,1 0,1 0,2l-1 -1z"/>
    <path class="fil1" d="M11187 11426l-32 21 -8 -11 4 -1 -3 -4c-24,43 -48,86 -75,128l-6 2 -10 4 -520 -823 -16 6 4 17 -3 -7 3 14 -14 -33c1,0 2,0 3,0l-3 -6c4,-2 12,-1 20,0l-306 -485 13 -6 -4 -7 4 -2 -23 -47 -15 7 3 8 -3 1 14 29 -131 -206 31 18 10 -13 -5 -3 5 -6 -42 -21 -3 13 2 1 -1 5 -173 -272 26 -5 -4 -9 4 0 -8 -17 -33 6 -273 -431 5 -8 -4 -4 4 -5 -12 -12 -6 8 -73 -114 -2 -2 1 -1 -90 -141 -364 562c-10,-14 -20,-27 -30,-29l-17 77 2 -1 -2 10c9,-5 18,-8 28,-10l-17 16 -3 -4 -98 151c-6,-3 -13,-9 -22,-18l-12 58 2 0 -2 9c1,0 2,0 3,0l-23 34c7,1 15,1 18,0l-16 7c7,0 13,1 16,-1l-23 10 4 17 -3 -8 3 14 -10 -22 -172 266 -3 0 0 4 -13 20c4,2 6,4 9,6l-11 -2 0 0c4,3 8,6 11,9 -6,-1 -11,-2 -15,-3l-29 44c5,10 12,16 22,20 -5,0 -9,0 -13,-1 4,3 8,6 13,8 -15,-1 -26,-4 -33,-9l-74 114c5,5 10,12 17,19l-19 -16 0 0c5,6 11,14 19,22 -8,-6 -15,-12 -22,-18l-79 122 1 5 -1 0 1 7 -8 -2 -636 981 -3 20 -8 -2 -48 74c-13,-20 -25,-40 -37,-60l-29 23 -11 -10 4 -3 -4 -4 29 -23c-34,-60 -66,-122 -94,-186l-9 2 1 -6 -1 0 2 -11c-98,-230 -153,-482 -153,-746 0,-47 2,-94 5,-141 -14,-3 -26,-6 -38,-8 -1,0 0,-2 5,-6l-5 -1c-3,1 12,-11 43,-37 10,-103 29,-205 56,-303l-20 4 3 -7 -3 1c6,-14 11,-24 15,-31 4,2 9,4 13,6 33,-117 78,-229 132,-336l-21 -6 0 -7 0 0 1 -12 24 7 -2 6 2 0 -2 9c23,-46 49,-90 76,-134 -5,-5 -9,-11 -13,-15 -4,13 -12,22 -23,27l-29 -67 3 1 -3 -7c24,2 44,0 59,-6 6,14 15,26 24,39 43,-67 90,-131 141,-192l-3 -6 2 -1 -2 -5 19 -8 0 0c36,-41 72,-80 111,-118l-3 -10 2 0 -2 -6 21 -1c115,-111 244,-207 384,-287 4,5 6,10 8,14 4,8 5,16 4,24 6,-2 14,-10 23,-23l-4 -4 4 -5c-6,-6 -11,-11 -17,-16 131,-73 272,-131 420,-173l-1 -5 0 -3 1 6 -1 -6 3 -15c1,-14 0,-29 2,-41l-1 1c1,-2 1,-5 1,-8 -4,9 -8,12 -10,15 -1,4 -1,9 -1,14l0 0c0,6 0,13 2,20l3 0 0 1 0 0 0 0 0 0c0,5 0,10 1,16l0 0 1 5c133,-37 273,-61 416,-69l0 -8 0 0 0 0c0,-5 0,-10 -1,-14l-10 -55c-5,-3 -14,-6 -28,-8 -29,-4 -40,-6 -34,-4 0,-3 1,-5 2,-7 -4,0 -5,0 -2,0 0,-1 1,-2 1,-4l-2 0 2 -6 -2 -1 4 -11 8 2 1 7c5,-3 13,-3 22,-2l-3 -4c-5,1 -11,3 -19,5 5,-3 10,-7 14,-10 -4,1 -9,2 -14,3 6,-3 11,-7 16,-12l3 -8 4 1c8,-10 13,-20 16,-33 8,9 15,13 20,15l-6 4c3,1 5,2 6,2l-19 13c1,11 4,24 8,40l0 -3c1,-1 2,-1 3,-1 18,1 30,10 38,30 0,1 0,3 -1,3l1 3c0,8 -12,7 -15,11l-1 16c5,6 14,14 21,7 -3,3 -6,6 -9,9 3,1 6,0 9,-3 -7,7 -13,12 -14,22 32,-2 65,-3 98,-3 402,0 775,120 1085,326 1,-1 2,-2 4,-2 -1,1 -1,2 -2,4 8,4 15,9 22,14 28,0 46,-1 52,-4 13,-5 19,-14 19,-28 6,12 14,16 25,12 -1,2 -2,5 -4,7 2,0 3,-1 4,-1 -4,12 -11,20 -22,24 -9,4 -20,3 -29,7 -4,2 -6,5 -7,10 17,13 35,25 52,39l13 -21 10 7 -2 4 2 2 -10 18c106,83 203,177 289,280 8,-11 23,-6 39,-10l-2 7 2 -1c-4,14 -8,24 -12,38 68,84 128,175 181,270l0 0 2 0 7 13 -2 0c92,170 159,356 195,551l11 -10 25 26 -3 3 3 4 -11 10 -23 -25c2,12 4,24 6,36 10,-1 21,-2 23,-1 -4,2 -9,4 -13,6 7,0 12,-1 13,1 -7,2 -14,6 -21,10 8,51 14,103 18,156l-16 -18c2,30 -13,17 -7,32 -3,3 -2,7 11,33 5,-1 10,-3 14,-4 2,30 2,59 2,89 0,77 -4,153 -13,227 1,1 3,2 4,2 9,5 13,5 14,2 0,-3 -1,-6 -2,-9 1,1 2,1 2,2 0,-2 -1,-5 -2,-8 7,5 10,12 9,22 0,6 -1,13 -3,21 -6,-7 -15,-11 -24,-15 -12,87 -29,173 -52,256 -3,2 -6,5 -12,10l8 2c-2,2 -4,4 -8,7l6 2c-18,64 -39,126 -64,187 10,-4 22,-6 36,-6l-1 6 1 0c-2,28 -4,50 -4,66 -31,1 -49,1 -56,-1 0,-2 -1,-4 -1,-5 -16,34 -32,68 -49,101l1 4 -2 0 1 4 20 -11 -4 -2 4 -5 -4 -2 12 -15 11 8 -3 4 3 2 -10 14 3 2 -4 3 4 3zm-2550 -1600c-26,18 -41,24 -75,38l4 -10 -4 1 11 -32 64 -6c-6,4 -11,8 -16,11l16 -2zm309 -771l1 -15 -1 1 1 -10c-3,3 -6,6 -9,9 1,2 3,3 5,4l-5 5c2,3 4,4 8,6zm-219 891l2 4c-1,10 -17,10 -22,15l0 23c6,8 18,20 28,9 -4,5 -8,9 -12,13 4,1 8,0 12,-4 -10,11 -19,19 -20,35 0,9 -8,14 -25,15l0 -9 0 0c0,-6 0,-13 0,-20l0 0c0,-7 0,-13 -2,-20l-16 -92 0 -6 0 0 0 -3 0 -6c1,-1 3,-1 4,-1 24,1 42,15 53,42 -1,2 -1,4 -2,5zm-3 139l0 18 -29 11 -3 -18 2 0 -2 -9 32 -11 0 9 0 0zm-31 -235c-2,3 -3,6 -5,9 17,0 40,9 71,27 0,-3 -1,-6 -1,-9l1 0c0,-19 -9,-38 -9,-58l-50 -1c0,7 -4,18 -12,32 2,0 3,0 5,0zm2340 1515l-4 -5 2 -1c3,1 5,1 8,1l-6 5zm21 21l-7 5 -7 -8c-1,-2 -1,-4 0,-6l5 3 -5 -6c-1,-2 -1,-4 0,-6l14 9 -7 5 7 4zm-21 -12l-4 -5 2 -1c3,1 5,1 8,1l-6 5zm283 -543l-31 25 -11 -13 5 -4 -5 -5 32 -25 10 13 -4 4 4 5zm-43 -396c-19,-22 -31,-45 -38,-69 2,3 4,5 6,8 -2,-6 -4,-11 -6,-17 11,17 27,27 46,31l-2 9 2 0 -8 38zm-76 -353l4 -19 -2 0 2 -9 -30 -6 -4 19 2 0 -2 9 30 6zm-88 -19l3 -19 -1 0 1 -9 -29 -6 -4 19 2 0 -2 9 30 6zm-45 -9l4 -19 -1 0 1 -9 -42 -9 -4 19 2 0 -2 9 42 9zm-380 42l4 -17 -2 0 2 -9 -42 -9 -4 17 2 1 -2 8 42 9zm-518 -553l-42 -9 2 -8 -2 -1 3 -17 42 9 -2 9 2 0 -3 17zm-1115 -4l-35 20 -8 -13 4 -3 -4 -7 32 -18 11 12 -6 3 6 6zm1110 -386l6 -27 -2 0 2 -9 -19 -4 -6 27 2 0 -2 9 19 4zm51 171l4 -17 -2 0 2 -9 -53 -11 -3 17 2 0 -2 9 52 11zm40 383l-5 -7 5 -2 -22 -31 -13 7 5 7 -5 2 22 31 13 -7zm-154 -178l4 -17 -2 0 2 -9 -52 -11 -4 17 2 0 -2 9 52 11zm173 295l-7 -1c2,-3 5,-5 7,-8l-99 -21c-1,5 -1,11 -1,16 -1,11 2,22 7,32 -25,3 -64,5 -84,-12l8 15c-3,-2 -6,-4 -8,-6l19 34c11,2 8,11 21,14 32,7 66,2 97,9 5,-22 18,-46 40,-72zm-830 -930l-1 -10 1 1c-5,-59 -8,-86 -9,-83 -22,21 -47,43 -76,68 3,0 7,0 11,0l-11 9c13,1 30,-3 50,-10 12,14 23,22 35,25zm664 863l-5 -1 5 -8 -21 -4 -23 44 4 1 -4 8 19 4 25 -44zm-750 -844l-14 -3 14 -6 -54 -12c-4,17 -19,33 -46,47 8,-2 16,-4 25,-7 -6,6 -15,11 -25,16 25,-6 59,-18 100,-35zm-77 -50l-4 -1 4 -8 -19 -4 -22 44 4 1 -4 8 18 4 23 -44zm-90 -2l7 -31c-1,1 -1,2 -3,3l3 -12c-2,3 -8,10 -18,21 -3,-4 -14,-9 -32,-13 11,3 23,14 34,20l-2 2c-3,-4 -14,-9 -32,-13 14,3 30,21 43,23zm94 140l-5 -7 5 -2 -39 -56 -15 7 5 7 -5 2 33 45c-16,-4 -27,-10 -34,-19 -17,20 -30,31 -39,33 -7,-12 -9,-20 -9,-23 0,2 0,6 0,9 -3,16 13,43 30,47 2,-9 11,-13 27,-13 16,0 26,-8 29,-24l-3 -1c1,-1 2,-3 2,-5l5 7 13 -7zm-143 -91l-6 -3 6 -6 -16 -10 -35 42 5 3 -5 6 15 9 36 -41zm-52 2c-2,-3 -4,-6 -5,-10l5 1c-5,-7 -9,-18 -10,-31l-34 22 10 2 -10 7 44 9zm1033 404l-74 -16 2 -8 -2 -1 4 -18 74 15 -2 9 2 0 -4 19zm-22 330l-27 22 -13 -12 6 -4 -6 -5 27 -20 13 10 -6 5 6 4zm-919 -649c0,4 2,11 9,23l1 0c-5,-7 -9,-16 -10,-23zm-90 454c-12,7 -31,7 -59,1 -2,7 -3,13 -3,18 1,6 2,11 5,15l-4 -2c0,4 2,8 4,11 -18,-8 -45,-22 -84,-41 11,2 20,4 29,5 -9,-4 -19,-9 -29,-14 29,7 51,8 67,4 -8,-16 -26,-35 -54,-57l15 3c-5,-4 -10,-8 -15,-12l53 11c2,6 7,16 15,31 14,-6 51,6 60,18 -2,1 -4,2 -7,3 3,2 6,4 7,6zm-107 -3l-29 -6 2 -9 -2 0 3 -17 30 6 -2 9 2 0 -4 17zm-980 111c-18,10 -43,19 -74,25 -5,-15 -7,-26 -6,-32 0,-4 0,-7 0,-10 6,6 14,9 22,11 16,3 35,2 58,-3 -9,5 -20,9 -31,14 9,-1 20,-3 31,-5zm-55 -61l0 -9 0 0 0 -61 -22 -4 1 9 -1 0 1 60 21 5zm-37 992l55 -3 3 -18 -1 0 1 -9 -56 4 -2 17 1 0 -1 9zm454 -80l7 50 21 4 -1 -10 1 1 -7 -51 -21 -3 2 9 -2 0zm97 -36c20,-10 36,-19 47,-25 -14,5 -30,10 -47,16 28,-14 47,-25 58,-32 20,-13 34,-26 42,-39l-2 12 2 -3 -6 39c-24,8 -55,18 -94,32zm1935 128c-1,6 0,11 1,15 11,1 37,-10 44,-19l-5 -2c-2,1 -5,2 -7,2 5,-3 10,-6 12,-9l-5 -2c-8,3 -14,4 -20,3l-2 -10 -16 -5c-2,11 -3,20 -2,27zm715 24l-5 -2 4 -7 -4 -2 6 -12c0,4 0,8 -1,11l1 -2c0,5 0,10 -1,14zm-21 -34c2,-3 4,-6 5,-8l-5 -1c9,-14 12,-20 9,-19 1,0 2,0 3,1 4,8 6,15 8,22l-3 0c1,3 2,6 3,9l-20 -4zm177 18l-4 -7 4 -2 -19 -37 -15 7 4 7 -4 2 19 38 15 -8zm81 43c-2,-3 -4,-7 -6,-10l6 1c-11,-20 -24,-35 -34,-55 -5,8 -10,15 -15,24l-7 -15 -15 8 4 7 -4 2 12 23 59 15zm-45 360c0,9 0,19 2,29l5 0 0 1 0 0 0 0 0 1c0,6 0,14 0,21l0 0 2 13 -2 -13 1 -4 1 8 -1 -8 4 -21c2,-20 0,-41 3,-58l-1 2c0,-4 1,-7 1,-11 -6,12 -11,17 -15,20 0,7 0,13 0,20zm-254 194l-5 -2 2 4 -22 6 18 4 -18 5 32 7c-2,10 -9,18 -7,28 -2,7 0,15 13,25 24,19 42,0 39,-24 1,-5 1,-10 -1,-15l-2 -5 82 17 4 -17 -2 0 2 -9c-19,0 -41,-3 -66,-8 -15,-4 -27,-6 -37,-8 -9,-8 -21,-15 -37,-19 1,3 3,7 5,11zm-2243 -1749l3 8 -37 15 -8 -19 3 -2 -3 -7 37 -16 8 20 -3 1zm-965 532l2 8 -18 7 -16 -67 2 -1 -2 -8 17 -8 17 68 -2 1zm-15 101c0,19 -5,49 -12,89l-18 -41 2 -4 -2 -5c8,-11 18,-27 30,-48 0,3 0,6 -1,10l1 -1zm133 -186l3 5 -18 24 -12 -14 4 -4 -4 -5 23 -26 7 16 -3 4zm-72 259l4 2 -10 16 -40 -30 4 -6 -4 -3 8 -15 42 29 -4 7zm621 -627l2 9 -16 6 -20 -77 2 -1 -2 -8 16 -7 20 77 -2 1zm-765 337l-2 7 2 -16c-8,32 -14,54 -18,66 -8,24 -18,41 -28,52l10 -5c-3,6 -7,10 -10,14l37 -16c1,-25 4,-59 9,-102zm-12 176l-3 3c1,-4 2,-8 3,-12 -16,20 -23,38 -21,53 -1,7 0,14 3,19 2,7 14,8 34,2 -2,-2 -4,-5 -6,-7 2,-1 4,-1 6,-2 -6,-7 -11,-14 -14,-22 -3,-6 -4,-13 -5,-19 1,-5 2,-10 3,-15zm204 -276l-4 5 12 13 17 -23 -3 -6 3 -3 -7 -16 -22 26 4 4zm424 -702l-2 2 8 20 50 -35 -3 -7 3 -2 -9 -20 -49 35 2 7zm154 337c1,2 1,4 1,5 -2,8 -9,15 -22,21 4,-2 9,-2 15,-1 -4,4 -9,7 -15,10 7,-3 17,-1 30,6 -1,-3 -2,-6 -3,-11l3 2c-2,-4 -4,-11 -5,-21 -1,-9 -3,-16 -4,-20 2,5 2,10 1,14 0,-2 -1,-4 -1,-5zm-7 189l-1 8 18 4 12 -64 -1 0 1 -9 -18 -3 -12 63 1 1zm31 -176c21,8 35,20 41,34 2,5 4,11 4,17 0,4 0,7 -1,10 -7,0 -14,1 -21,4 -4,2 -8,4 -12,7 27,12 42,18 47,16 -1,-3 -2,-6 -2,-9 0,0 1,0 2,0 -1,-3 -2,-6 -2,-9 0,-1 0,-3 0,-5 45,33 69,55 74,67 -1,-4 -3,-10 -5,-18 2,3 4,6 5,9 -2,-6 -5,-15 -8,-27 -3,-13 -6,-22 -8,-27 -4,-9 -13,-15 -29,-16 -12,-1 -20,-2 -25,-4l8 -21 -3 -3 3 -6c-27,-27 -49,-36 -68,-28 5,2 10,4 14,6 -5,0 -10,1 -14,3zm31 72c-3,0 -5,1 -8,2 -9,4 -20,11 -31,20 2,-5 4,-10 7,-14 -2,2 -5,4 -7,5 4,-12 10,-20 17,-23 8,4 16,7 22,10zm29 -14c-1,0 -2,0 -2,0l0 -1 2 1zm34 -92l-4 6 14 12 31 -43 -2 -6 2 -3 -7 -16 -38 47 4 3zm28 92l2 18 30 4 1 -19 -1 0 1 -9 -33 -3 1 9 -1 0zm37 -158l-3 2 7 17 84 -42 -3 -7 3 -2 -7 -18 -84 43 3 7zm-673 1502l4 9 -32 -3 2 -8 -2 -1c7,-24 12,-37 15,-38l17 41 -4 0zm49 -66c5,2 9,4 13,8 -1,-9 -5,-14 -13,-17 14,5 25,18 34,40l-4 1c1,2 3,5 4,8l-39 16c5,-5 9,-9 11,-14l-11 5c10,-10 16,-20 18,-31 -1,-8 -6,-14 -13,-16zm-29 -231l-4 5 6 6 -17 -1 1 9 -1 0 2 18 32 2 -1 -9 1 0 -1 -18 -7 0 16 -18 -3 -6 3 -3 -7 -16 -24 27 4 4zm121 381l-3 1 13 30 17 -7 -3 -8 3 -1 -12 -30 -18 7 3 8zm2269 -662l-3 -7 3 -2 -18 -37 -15 7 4 7 -4 2 18 38 15 -8zm-29 -60l-15 7 -23 -47 4 -1 -4 -8 15 -7 23 47 -3 2 3 7zm-29 -60l-15 7 -13 -26 3 -2 -3 -7 15 -7 13 26 -4 2 4 7zm-142 -98l-32 1 -2 -17 1 0 -1 -9 28 2 6 14 -4 0 4 9zm-221 -81l-39 -53c2,-1 4,-1 7,0l-7 -9c5,-2 10,1 17,8 6,8 8,15 7,22l0 1c12,3 18,9 15,20 1,3 1,7 0,11zm-15 -29c0,2 0,5 -1,7 3,0 6,1 8,2l-7 -9zm-56 -201c2,-4 3,-8 5,-12 -2,1 -4,2 -5,3 4,-9 7,-17 7,-25 -1,-14 -11,-26 -28,-37 -4,6 -12,11 -21,14 7,-28 13,-43 17,-45 3,7 8,12 14,17 2,-21 3,-38 3,-52 0,-16 -2,-27 -4,-32 1,2 2,4 3,6 -1,-7 -2,-12 -3,-15 7,15 19,28 27,43 2,5 3,10 2,15 1,8 -2,17 -9,27l-7 11 22 10c0,4 0,8 0,11 1,33 -7,53 -23,61zm-49 -54c-8,2 -15,3 -21,4 12,5 21,6 28,3 2,-8 4,-15 6,-21 -11,5 -25,8 -34,9 8,4 15,5 21,5zm179 11l-55 -1 -1 -16 1 0 -1 -9 50 4 6 13 -4 0 4 9zm-189 -324l-54 26c5,-3 10,-8 15,-16l-15 7c11,-6 20,-22 27,-45 5,5 13,12 27,19l-9 4c3,2 6,4 9,5zm326 906l-3 -7 3 -2 -32 -66 -17 9 4 7 -4 2 32 65 17 -8zm-243 -370l-4 -9 4 0 -6 -13 -27 -3 2 9 -2 0 3 17 30 -1zm60 -59c-1,-3 -3,-6 -5,-9l5 0c-10,-15 -15,-35 -16,-60 -15,-2 -38,-4 -68,-6 2,4 5,7 10,10l-10 -1c6,11 23,17 53,18 2,7 3,13 5,19 1,3 1,5 2,7 -3,6 -11,2 -23,-4 4,8 10,13 20,16 -4,1 -11,-2 -20,-7 7,14 22,20 47,17zm-89 -85c-3,-7 -10,-13 -16,-20 8,1 13,4 16,11 -5,-11 -17,-19 -23,-30 -3,14 -7,22 -13,25 4,-2 7,-3 10,-4 -3,7 -6,11 -10,13 18,-9 30,-7 36,5zm-90 -16c8,4 16,3 24,0 9,-4 12,-9 10,-18 1,-3 1,-8 -2,-14 -7,-15 -18,-26 -31,-33 0,2 0,6 0,9l0 0c0,3 0,7 0,11l0 0c0,11 0,23 -1,36l0 0 0 9zm-131 -204c13,-6 19,-16 17,-28 0,-4 0,-9 -1,-14 -1,-3 -2,-6 -2,-8 1,-6 3,-9 8,-11 -1,-2 -3,-4 -5,-6 1,-1 3,-2 5,-3 -8,-15 -38,-24 -52,-17 3,-2 11,-1 24,2 0,2 0,4 -1,6 -8,-2 -17,-2 -23,1 3,-1 11,-1 22,2 -2,9 -9,21 -20,37 2,0 3,1 5,2l-5 7c11,4 20,14 28,30zm0 -106l-4 -8 4 -1 -9 -17 -25 12 4 7 -4 2 8 17 26 -12zm1413 1421l1 0 -2 3c1,-1 1,-2 1,-3zm-152 -464l0 1c0,0 -1,0 -1,-1l1 0zm152 473l1 0 -2 3c1,-1 1,-2 1,-3zm114 -390c-17,-28 -30,-63 -36,-84l3 0c-1,-4 -2,-6 -3,-9 4,-1 8,-1 12,0 5,28 13,56 24,84 -3,-5 -6,-11 -9,-17 3,9 6,18 9,26zm-266 -74l0 1c0,0 -1,0 -1,-1l1 0z"/>
   </g>
   <path class="fil2" d="M12063 11127l0 -195 1095 0c49,0 86,-9 110,-27 23,-17 34,-43 34,-77l0 -158c0,-35 -11,-60 -34,-77 -24,-18 -61,-27 -110,-27l-734 0c-35,0 -69,-2 -99,-5 -31,-4 -59,-10 -84,-17 -26,-8 -49,-17 -70,-28 -21,-11 -40,-23 -56,-37 -16,-13 -30,-29 -42,-45 -12,-17 -22,-35 -29,-54 -8,-19 -13,-39 -17,-60 -3,-21 -5,-43 -5,-66l0 -73c0,-45 7,-87 22,-125 7,-19 17,-38 29,-54 12,-17 26,-32 42,-46 16,-14 35,-26 56,-37 21,-11 44,-20 70,-27 25,-8 53,-14 84,-17 30,-4 64,-6 99,-6l1067 0 0 207 -321 0 26 -65 -3 4 -56 17 -23 7 4 6 -9 6c-6,4 -11,6 -17,9l14 16 -682 0c-49,0 -86,8 -110,26 -23,17 -34,43 -34,77l0 77c0,34 11,60 34,77 24,18 61,27 110,27l734 0c14,0 28,0 42,1 14,0 28,1 41,2l7 1c17,2 34,4 49,7 16,3 31,7 45,11 25,8 48,17 69,28 21,10 40,23 56,36 16,14 31,30 42,46 12,17 22,35 29,55 8,19 13,39 17,60 4,21 5,42 5,65l0 154c0,46 -7,88 -22,126 -7,19 -17,37 -29,54 -12,16 -26,32 -42,46 -16,13 -35,26 -56,36 -21,11 -44,20 -69,28 -26,7 -54,13 -85,17 -30,3 -63,5 -99,5l-1095 0 0 -11zm551 -583l6 -26 -3 0 2 -11 -18 -10 -12 -6 16 39 9 14zm-3 -68l5 -2 -6 -11 6 -2 -35 -65 -4 2 6 11 -6 2 34 65zm578 -583l-26 6c-18,5 -36,9 -53,14l-99 29 4 12 -4 1 2 6 57 12 -1 5 3 -1 -2 12 4 1 29 -8c15,-5 31,-15 48,-31 12,-12 24,-27 37,-44l-10 3 11 -17zm12 106l15 -39 -7 6 7 -20 -27 21 11 6 -11 8c5,4 9,9 11,15l1 3zm7580 448l9 2 3 -19 -2 0 2 -13 -8 -2 -4 19 3 0 -3 13zm-5443 -76l1 1 0 -1 -1 0zm0 -14l3 5 1 -5 -4 0zm975 -26l1 -5 -3 -1 3 -13 -25 -5 -1 6 3 0 -3 13 25 5zm-860 -24l1 -3 -3 0 3 -13 -41 -9 0 3 2 1 -2 13 40 8zm-2508 731l20 -33 -7 -2 7 -11 -2 -1 -22 32 7 4 -7 9 4 2zm5554 -662l30 -13 -9 13 557 0c49,0 86,-9 110,-27 23,-17 35,-43 35,-77l0 -93c0,-34 -12,-60 -35,-77 -24,-18 -61,-26 -110,-26l-813 0 0 300 235 0zm437 -377l3 3 -8 -17 10 7 -1 -2c-4,-10 -8,-20 -11,-28l-23 -5 17 17 -17 -4c11,11 21,20 30,29zm-106 44l48 -18 -5 -11 5 -2 -1 -3 -49 16 5 12 -5 1 2 5zm379 -12l-10 -11 0 3 10 8zm-10 -23l18 15c-6,-9 -11,-18 -16,-26l-2 11zm-126 -82l-11 -27c-4,-4 -8,-7 -12,-9l-13 -9 -5 6c-3,3 -5,8 -8,13l6 0 -6 14 3 0c7,1 14,2 21,3 9,2 17,5 25,9zm-55 -57l59 0c36,0 69,2 100,6 30,3 58,9 84,17 25,7 48,16 69,27 21,11 40,23 56,37 16,14 31,29 43,46 11,16 21,35 29,54 7,19 12,39 16,60 4,21 6,43 6,65l0 89c0,83 -25,152 -74,208 -25,28 -58,51 -99,68 -37,14 -80,25 -129,31l295 561 -207 0 16 -40 -47 14 -45 14 -35 -65 41 -12c16,-4 32,-15 48,-31 12,-11 25,-26 38,-44l-26 6c-18,5 -35,9 -53,14l-72 21 -53 -101 18 1 1 -8c-5,0 -12,-1 -20,-3l-5 -1 -168 -321 -640 0 0 509 -23 7 9 11 -9 3 21 26 -245 0 0 -4 -1 1 1 -12 -11 10 0 -1264 1012 0zm276 1198l15 -40 -27 21c2,2 4,4 6,6 3,4 5,8 6,13zm-1056 -109l-8 -2 -57 11 4 13 -4 0 1 3 66 -12 -4 -13 2 0zm-10 -1068l-16 20 8 4 -8 9 4 2 16 -19 -7 -5 7 -8 -4 -3zm19 37l3 13 -3 0 6 24 1 1 -4 -14 4 0 -6 -24 -1 0zm1009 540l-4 -14 4 0 -6 -22 -3 1 5 13 -5 0 8 21 1 1zm-5058 -259l8 5 -1 -9 -1 -6 -15 5 9 5zm-77 0l-2 0 2 -1 -1 -5 2 -1 0 -2 -25 5 0 -335 1033 0c36,0 69,2 100,6 31,3 59,9 84,17 25,7 49,16 69,27 21,11 40,23 56,37 17,14 31,29 43,46 12,16 22,35 29,54 7,19 13,39 16,60 4,21 6,43 6,65l0 141 -20 -4 -1 6 2 0 -2 13 21 5 0 23c0,23 -2,46 -6,67 -3,21 -9,41 -16,60 -8,19 -17,37 -29,53 -12,17 -26,32 -43,46 -16,14 -34,26 -55,37 -21,10 -44,20 -70,27 -25,8 -53,13 -84,17 -31,4 -64,6 -100,6l-775 0 0 460 -258 0 0 -918 25 -6 -1 -6zm69 -18l13 5 -1 -7c-3,0 -6,0 -10,1l-2 1zm47 173l9 2 5 -22 -3 -1 3 -12 -9 -2 -5 22 3 1 -3 12zm-59 336l56 -45 -7 -8 7 -5 -5 -6 -57 45 7 8 -7 5 6 6zm5788 -830l-8 -7 11 7 1517 0 0 207 -636 0 0 1062 -258 0 0 -1062 -654 0 6 -17 -4 -2 4 -11 -6 -3 0 -174 28 0zm-679 1000l-1 -1 -16 12 17 -11zm-3241 -88c-6,12 -12,24 -16,36l58 -68 23 24c-2,-10 -4,-19 -8,-28 -4,-13 -10,-24 -17,-34 -13,19 -28,44 -40,70zm-771 -602c0,-18 -3,-35 -10,-48 -7,-13 -17,-24 -30,-33l-11 -6 25 -30 -8 -4 8 -9 -4 -2 -16 18 7 5 -17 20 -7 -3c-11,-4 -23,-7 -37,-9 -13,-1 -28,-2 -45,-2l-104 0 6 -29 -3 -1 3 -12 -9 -2 -9 44 -659 0 0 38 -36 24 10 7 -11 7c4,3 7,7 10,11l1 3 4 0 -3 13 25 -1 0 293 775 0c16,0 30,-1 43,-2 12,-2 24,-5 34,-8l15 -5 0 50 9 2 0 -57 5 -3c7,-5 14,-11 19,-17 5,-6 9,-13 12,-21 2,-4 3,-8 4,-12 2,-5 2,-9 3,-14 1,-5 1,-11 1,-17l0 -74 2 -3c6,-10 13,-21 22,-33l32 -45 7 1c5,1 9,3 12,4l-10 -39 0 1 0 -2 -7 8c-11,11 -25,24 -39,37l-19 17 0 -60zm-933 254l-9 -2 -22 32 6 3 -6 10 3 2 28 -45zm2920 700l-392 -611 14 3 -3 -14 3 1 -5 -25 -2 1 3 12 -21 4 -8 -12 -11 1 22 -27 -7 -4 7 -9 -3 -2 -19 23 -212 -331 -45 70 -20 -26 -10 12 10 2 -10 11 27 6 -600 920 -289 0 140 -210 13 9c7,5 13,11 18,17l-1 -5c-2,-13 -7,-23 -14,-30l-6 -6c231,-349 462,-697 694,-1044l184 0c279,424 559,846 838,1269l-292 0 -3 -5zm-1312 -16c-2,-8 -3,-16 -3,-24l-1 -8 -7 10 11 22zm-1 -83l1 -2 17 24 0 0 5 7c1,2 2,3 5,5 7,-34 15,-57 23,-82l4 -14 -15 1c-23,2 -42,3 -50,39l-1 6c3,3 5,6 8,11l3 5zm6047 93l0 -1077 20 -9 -5 -11 5 -2 -20 -47 0 -112 156 0 -1 4 2 1 -2 13 1 0 0 6 25 8 1 -3 -2 0 5 -29 73 0 0 1269 -258 0 0 -11zm21 -782l5 4 30 -42 -6 -4 6 -9 -5 -4 -30 42 7 4 -7 9z"/>
  </g>
 </g>
</svg>
