<?xml version="1.0" encoding="UTF-8"?>
<!DOCTYPE svg PUBLIC "-//W3C//DTD SVG 1.1//EN" "http://www.w3.org/Graphics/SVG/1.1/DTD/svg11.dtd">
<!-- Creator: CorelDRAW X7 -->
<svg xmlns="http://www.w3.org/2000/svg" xml:space="preserve" width="297mm" height="210mm" version="1.1" style="shape-rendering:geometricPrecision; text-rendering:geometricPrecision; image-rendering:optimizeQuality; fill-rule:evenodd; clip-rule:evenodd"
viewBox="0 0 29700 21000"
 xmlns:xlink="http://www.w3.org/1999/xlink">
 <defs>
  <style type="text/css">
   <![CDATA[
    .fil0 {fill:none}
    .fil2 {fill:#DA241A}
    .fil1 {fill:#1E1A16;fill-rule:nonzero}
   ]]>
  </style>
 </defs>
 <g id="Camada_x0020_1">
  <metadata id="CorelCorpID_0Corel-Layer"/>
  <polygon class="fil0" points="21597,15886 8103,15886 8103,5114 21597,5114 "/>
  <g id="_2573198118896">
   <path class="fil1" d="M8898 15288l0 -229 1284 0c58,0 102,-10 130,-31 27,-20 40,-50 40,-91l0 -185c0,-40 -13,-70 -40,-90 -28,-21 -72,-31 -130,-31l-860 0c-42,0 -81,-3 -117,-7 -36,-4 -69,-11 -98,-20 -30,-9 -57,-19 -82,-32 -24,-13 -46,-27 -65,-43 -20,-16 -36,-34 -50,-54 -14,-19 -25,-40 -34,-63 -9,-22 -15,-45 -20,-70 -4,-25 -6,-51 -6,-78l0 -85c0,-53 9,-102 26,-147 8,-23 20,-44 34,-64 14,-19 30,-37 50,-53 19,-17 41,-31 65,-44 25,-12 52,-23 82,-32 29,-9 62,-15 98,-20 36,-4 75,-6 117,-6l1252 0 0 242 -377 0 30 -75 -3 5 -66 19 -27 9 5 6 -11 8c-6,4 -13,7 -20,9l17 19 -800 0c-58,0 -101,11 -129,31 -27,20 -40,50 -40,91l0 89c0,41 13,71 40,91 28,21 71,31 129,31l860 0c17,0 34,1 50,1 17,1 32,2 48,4l8 1c20,2 40,5 58,8 18,4 36,8 52,13 30,9 57,19 81,32 25,12 47,27 66,43 19,16 36,34 50,54 14,20 25,41 34,64 8,22 15,46 19,70 4,25 7,50 7,77l0 180c0,54 -9,104 -26,148 -9,23 -20,44 -34,63 -14,20 -31,38 -50,54 -19,16 -41,30 -66,43 -24,13 -51,23 -81,32 -30,9 -63,16 -99,20 -36,4 -75,7 -117,7l-1284 0 0 -14zm647 -683l6 -31 -3 0 3 -13 -22 -12 -14 -6 19 45 11 17zm-4 -80l6 -2 -7 -13 7 -3 -41 -75 -5 1 7 13 -7 3 40 76zm677 -684l-30 7c-20,6 -41,11 -62,17l-116 33 4 15 -4 1 2 7 68 14 -2 6 4 -1 -3 14 6 1 33 -10c18,-5 37,-17 56,-36 14,-14 29,-31 44,-52l-12 3 12 -19zm15 124l17 -46 -8 7 9 -23 -32 25 13 6 -13 10c6,4 10,11 13,18l1 3zm8890 526l10 2 4 -22 -3 -1 3 -15 -10 -1 -4 21 3 1 -3 15zm-6384 -89l1 1 1 -1 -2 0zm0 -17l4 6 1 -6 -5 0zm1144 -30l1 -7 -3 0 3 -15 -29 -6 -1 6 3 1 -3 15 29 6zm-1009 -28l1 -4 -3 0 3 -15 -47 -10 -1 3 3 1 -3 15 47 10zm-2942 857l24 -39 -8 -2 8 -13 -2 -1 -26 37 8 5 -8 11 4 2zm6514 -777l36 -15 -11 15 653 0c58,0 102,-10 130,-31 27,-20 40,-50 40,-91l0 -108c0,-41 -13,-71 -40,-91 -28,-20 -72,-31 -130,-31l-953 0 0 352 275 0zm513 -442l4 4 -10 -21 12 9 -1 -2c-5,-12 -10,-23 -13,-33l-27 -6 19 20 -19 -4c13,12 24,23 35,33zm-124 52l56 -21 -6 -13 6 -3 -1 -3 -58 19 6 14 -6 2 3 5zm444 -14l-11 -13 -1 3 12 10zm-11 -27l20 18c-7,-11 -13,-21 -18,-31l-2 13zm-148 -97l-14 -31c-4,-4 -8,-8 -13,-11l-15 -10 -6 7c-3,4 -6,9 -9,15l6 0 -7 17 4 0c8,0 16,2 24,3 11,2 21,6 30,10zm-65 -66l69 0c42,0 81,2 117,6 36,5 69,11 99,20 30,9 57,20 81,32 25,13 47,27 66,44 19,16 36,34 50,53 14,20 25,41 34,64 8,23 15,46 19,71 4,24 7,50 7,76l0 104c0,97 -29,179 -87,244 -29,33 -68,60 -116,80 -43,17 -93,29 -151,36l346 659 -243 0 19 -48 -56 16 -53 17 -40 -76 48 -14c18,-5 37,-17 57,-36 14,-14 29,-31 43,-52l-29 7c-21,5 -42,10 -63,16l-84 25 -63 -119 21 2 2 -9c-6,-1 -14,-2 -23,-4l-6 -1 -198 -377 -750 0 0 597 -27 9 11 12 -12 3 26 32 -288 0 0 -6 -1 1 1 -13 -12 11 0 -1482 1186 0zm324 1405l18 -47 -32 25c3,2 5,4 7,7 3,4 6,9 7,15zm-1239 -128l-9 -2 -66 13 4 14 -4 1 1 4 76 -15 -4 -15 2 0zm-11 -1252l-19 23 9 5 -9 10 4 3 19 -23 -8 -5 8 -11 -4 -2zm22 43l4 15 -4 1 7 28 1 0 -4 -16 4 0 -7 -28 -1 0zm1183 633l-4 -17 4 1 -6 -25 -4 0 6 15 -6 1 9 25 1 0zm-5931 -303l9 6 -1 -11 -2 -7 -18 6 12 6zm-91 0l-2 -1 2 -1 -1 -6 3 -1 -1 -2 -29 6 0 -393 1212 0c42,0 81,2 116,6 36,5 69,11 99,20 30,9 57,20 82,32 24,13 46,27 65,44 19,16 36,34 50,53 14,20 25,41 34,64 9,23 15,46 19,71 5,24 7,50 7,76l0 166 -24 -6 -1 7 3 1 -3 15 25 5 0 28c0,27 -2,53 -7,78 -4,24 -10,48 -19,70 -9,23 -20,44 -34,63 -14,20 -31,37 -50,54 -19,16 -41,30 -65,43 -25,12 -52,23 -82,32 -30,9 -63,15 -98,20 -36,4 -75,6 -117,6l-910 0 0 541 -302 0 0 -1078 30 -6 -2 -7zm81 -22l16 6 -2 -8c-3,0 -7,1 -12,2l-2 0zm55 204l11 2 5 -26 -3 -1 3 -15 -10 -2 -6 26 3 1 -3 15zm-69 394l66 -54 -9 -8 9 -7 -7 -7 -66 53 9 9 -9 7 7 7zm6788 -974l-9 -9 13 9 1778 0 0 242 -745 0 0 1247 -303 0 0 -1247 -767 0 7 -19 -5 -2 5 -14 -7 -3 0 -204 33 0zm-797 1173l-1 -2 -18 15 19 -13zm-3801 -104c-7,14 -13,28 -18,42l68 -79 27 28c-2,-11 -5,-22 -9,-33 -6,-15 -13,-28 -20,-39 -15,21 -33,50 -48,81zm-904 -705c0,-22 -4,-41 -12,-57 -7,-15 -19,-28 -34,-38l-13 -8 28 -34 -8 -6 8 -10 -4 -3 -18 21 8 6 -21 24 -8 -3c-12,-5 -27,-8 -42,-10 -16,-3 -34,-4 -53,-4l-123 0 7 -33 -3 -1 3 -15 -10 -2 -11 51 -773 0 0 45 -42 29 12 8 -12 8c4,3 8,8 10,13l2 3 4 0 -3 16 29 -2 0 344 910 0c18,0 35,-1 49,-3 15,-2 29,-5 41,-9l17 -5 0 58 10 3 1 -67 6 -4c8,-6 16,-12 22,-20 6,-7 11,-15 15,-24 1,-5 3,-10 4,-15 2,-5 3,-10 3,-16 1,-6 1,-13 1,-20l0 -87 2 -3c8,-12 16,-24 26,-39l39 -53 8 2c5,1 9,3 14,5l-13 -46 1 0 -1 -2 -8 9c-13,14 -29,29 -46,44l-22 19 0 -69zm-1094 297l-11 -2 -25 37 7 5 -7 11 3 2 33 -53zm3424 822l-458 -717 16 3 -4 -16 4 1 -7 -29 -1 0 3 16 -25 3 -9 -14 -13 2 26 -32 -9 -5 9 -10 -4 -3 -23 28 -248 -388 -53 81 -23 -30 -11 14 11 2 -11 13 30 7 -702 1080 -339 0 164 -247 15 10c8,6 15,13 21,20l-1 -6c-3,-14 -8,-26 -16,-34l-7 -8c270,-408 542,-817 813,-1224l216 0c327,497 655,992 983,1489l-343 0 -4 -6zm-1538 -19c-2,-10 -3,-20 -4,-28l0 -10 -9 12 13 26zm-1 -98l1 -2 20 28 0 0 5 8c2,3 3,4 6,6 10,-40 18,-67 28,-96l5 -17 -18 2c-27,2 -49,3 -58,46l-2 7c3,3 6,7 10,13l3 5zm7091 109l0 -1263 24 -10 -6 -13 6 -2 -24 -56 0 -131 183 0 0 5 2 1 -2 15 1 0 0 7 30 10 0 -4 -2 -1 6 -33 85 0 0 1489 -303 0 0 -14zm26 -917l6 4 35 -48 -7 -5 7 -11 -6 -4 -35 49 7 5 -7 10z"/>
   <g>
    <path class="fil2" d="M12725 11902l2 23 40 3 -1 -11 1 0 -1 -22 -8 -1 5 -6c475,371 1053,618 1686,692l-10 14 47 38 -2 3c38,8 78,21 83,34 3,8 8,21 12,40 2,11 4,16 9,14 -12,-27 -19,-49 -21,-65 4,8 8,21 12,40 2,11 4,16 9,14 -13,-30 -20,-53 -21,-69 1,-10 5,-17 12,-19 16,-7 35,-7 51,-13 8,-3 14,-8 20,-13 67,4 134,6 202,6 136,0 270,-8 401,-23 11,-12 27,-22 49,-31 -8,5 -15,14 -21,25 7,-3 14,-6 21,-10 -4,3 -8,7 -11,11 97,-12 192,-29 286,-49l-9 -22 7 0 -7 -15 78 -5 2 26c41,-10 82,-21 123,-32l0 -1 6 -1c22,-6 44,-13 66,-19l3 -17 26 8c81,-26 161,-54 240,-85 -15,-25 -30,-58 -44,-93l4 -4 -4 -11 31 -35 0 7 0 14 0 2 0 1 0 1 0 1 0 1c1,38 3,60 40,104 107,-43 211,-92 312,-146l15 62 22 -10 -3 -10 3 -1 -13 -54c108,-59 212,-123 313,-193l8 17 75 18c-3,-5 -5,-9 -8,-13l8 2c-12,-21 -26,-38 -37,-57 23,-16 45,-33 68,-50 35,-6 72,-6 106,-17 -2,-4 -3,-7 -5,-10l5 -1c-10,-20 -19,-30 -26,-35l12 -9 1 0c-9,-10 -22,-24 -36,-42 19,-2 38,-1 52,7 12,-18 19,-36 21,-52 -3,-22 -16,-42 -41,-63 7,0 14,2 20,5 -5,-7 -12,-14 -20,-20 33,0 61,28 84,83l-4 6 3 8c25,-21 49,-43 73,-65l-1 -2 5 -3 -5 -13 1 -1 -89 -143 0 0c1,5 3,9 5,13 -23,14 -57,35 -104,61 0,-6 2,-12 6,-19l-6 3c0,-21 23,-44 68,-67 -1,-7 -2,-14 -3,-20 -5,-46 -21,-32 -43,-4 0,-9 2,-17 7,-24l-7 8c0,-16 7,-29 22,-41l-202 -325 -81 23 -6 -24 3 -1 -3 -15 64 -18 -215 -347c24,1 49,1 72,6 6,-27 23,-57 50,-88l-8 -2c2,-3 5,-6 8,-9l-124 -26c-1,6 -2,13 -1,19 -1,14 2,27 9,40 -12,2 -27,3 -42,2l-58 -92 8 -14 -5 -1 5 -10 -26 -6 0 1 -149 -240 -1 -5 -3 -2 -15 -23 0 -1c9,-12 13,-23 11,-34 1,-6 0,-12 -3,-18 -9,-18 -24,-34 -34,-52 2,3 4,10 5,18 -2,-2 -3,-5 -5,-7 4,6 5,18 6,38l0 1c0,6 -1,13 -1,21l-954 -1534c2,-1 5,-2 7,-2 2,-1 5,-2 8,-1 5,1 9,3 12,7 0,-2 -3,-8 -9,-17 4,1 7,3 9,6 1,-3 -8,-17 -27,-42l-7 38 -437 -703 -112 178c-5,-3 -11,-8 -17,-12l19 3c-17,-14 -48,-34 -91,-59l7 16 -7 -5 24 49c16,2 37,5 64,10l-58 92c-6,-6 -11,-13 -15,-20 -4,-10 -7,-20 -9,-30 -21,14 -29,24 -26,32l1 1c-2,4 -2,7 -1,10 7,13 19,22 37,27l-531 840 0 0 0 0 -893 1413 26 63 -5 3 5 13 -27 12 -23 -54 -691 1094c65,61 132,118 201,174l-3 3 5 6 -5 5 7 8 -21 -2 1 12 -1 -1zm3470 -1624l2 0 -4 5c1,-2 2,-3 2,-5zm-1024 45c1,-2 2,-4 3,-6 -1,2 -2,4 -3,6l0 0zm-828 -523c-2,-6 -5,-11 -9,-16 11,2 23,5 36,8l-27 8zm850 957l-1 -1 6 0c-2,0 -4,1 -5,1zm623 815c-2,-1 -5,0 -7,0 2,0 5,0 7,0l0 0zm-1130 -139l1 -2c0,1 0,2 0,3l-1 -1zm-892 -575c1,-7 2,-13 2,-17l-2 1c1,-8 2,-14 2,-19 1,4 4,8 9,13l-8 5c1,3 4,7 8,11l-11 6zm2401 -565l2 0 -4 5c1,-1 2,-3 2,-5zm-1024 45c1,-2 2,-3 3,-5 -1,2 -2,3 -3,5l0 0zm-821 -595c0,7 0,11 1,15 -34,2 -63,0 -88,-5l-5 -2c-42,-22 -39,-61 -85,-116 -13,11 -27,25 -40,41l-11 -8 7 -11 -7 -5 50 -70 109 79c24,18 46,36 69,54 0,13 0,22 1,28l-1 0zm-7 72c-2,-5 -5,-11 -9,-16 11,3 23,5 36,8l-27 8zm850 958l-1 -1 6 0c-2,0 -4,0 -5,1zm-819 -1167l-38 -31c2,2 -13,-35 -44,-110 -18,-41 -35,-75 -54,-102l8 -3c-3,-4 -5,-8 -8,-12l29 -12 107 254 -10 -8 10 24zm1442 1981c-2,0 -5,0 -7,1 2,-1 5,-1 7,-1l0 0zm-1288 -590c-24,53 -60,106 -85,135 -4,-5 -8,-10 -12,-17l7 -6c-3,-3 -5,-6 -7,-9 36,-35 68,-75 97,-118 -10,20 -20,40 -32,60 11,-15 21,-29 32,-45zm158 451l1 -2c0,1 0,2 0,3l-1 -1zm2260 357c-10,4 -20,11 -31,23 19,-6 46,-12 70,-10 -8,-8 -16,-19 -26,-31 -14,0 -28,8 -44,25 9,-2 19,-5 31,-7zm78 37l14 -3 -7 -13c-3,5 -5,11 -7,16zm17 1c18,44 -1,36 19,83 11,-19 7,-24 8,-30l0 0 0 0 0 -1 0 0c-8,-15 -17,-32 -27,-52zm67 16l3 -2 -5 -2c1,1 1,3 2,4zm-4 -8l7 -5 -17 -8c5,4 8,8 10,13zm-139 -193c-1,22 -14,44 -15,66 -15,-20 -28,-30 -39,-30 10,0 18,-1 25,-2 -9,-9 -18,-14 -25,-14 35,1 53,-11 54,-36 0,13 -5,26 -9,39 6,-5 9,-13 9,-23zm-513 464c8,-1 15,-3 22,-5 -8,-1 -16,-1 -26,-1l4 6zm106 -658c-3,3 -5,6 -8,9 7,2 14,3 21,4 -4,-5 -8,-9 -13,-13zm-210 583l-7 1c2,-5 5,-11 7,-17 -54,10 -80,14 -78,13l-22 17c0,4 1,9 2,14l-2 2c0,9 3,20 7,33l62 2c11,-23 22,-44 31,-65zm104 90c8,-1 15,-2 22,-4 -8,-1 -16,-2 -26,-2l4 6zm-1658 -3596c-41,-9 -77,-10 -109,-3 2,-6 3,-12 4,-17l-4 1c2,-7 3,-14 4,-19 -1,-6 -5,-9 -10,-11 4,1 7,3 11,4 0,-11 -3,-18 -11,-19 14,3 30,16 42,19l62 -24c10,24 14,42 11,53l0 0c1,6 1,11 0,16zm-178 321l-29 -7 -10 -62 3 -1 -3 -15 27 -1 12 70 -3 -1 3 17zm124 -421l-16 20 -43 -29 6 -12 -6 -4 12 -24 47 33 -8 10 8 6zm53 614l75 12 -5 -16 5 1 -17 -52c-38,22 -57,36 -58,40l15 2c-9,7 -14,11 -15,13zm-29 117c14,19 40,32 78,38l11 -70 -3 5 3 -21c-13,24 -30,40 -50,45 -18,4 -31,-1 -39,-13 9,12 22,21 39,28l0 0c-18,4 -31,0 -39,-12zm1964 2220l4 1 -8 31 -109 -25 4 -15 -4 -1 8 -31 109 25 -4 15zm-213 -103l8 -9 -8 -6 35 -38 22 15 -9 9 9 6 -35 39 -22 -16zm-133 -21l7 -2 -7 -13 77 -25 12 26 -6 2 6 13 -76 25 -13 -26zm-321 390c1,-3 2,-6 4,-9l-5 -1c6,-28 23,-41 50,-40 27,1 42,-6 46,-21 27,7 53,53 48,80 1,6 1,11 0,16 1,-6 -3,-19 -14,-39 -15,3 -38,21 -68,54 -10,-15 -29,-26 -56,-33l54 76 -9 4 9 12 -25 10 -63 -94 7 -4 -7 -12 21 -11 8 12zm127 -29c8,12 14,25 16,38 0,-7 -4,-20 -14,-39l-2 1zm371 -276l23 15 35 -38 -9 -6 9 -10 -23 -15 -35 38 9 6 -9 10zm-382 588l-5 23c3,-6 14,-18 30,-36 6,8 24,15 54,23 -18,-5 -38,-24 -57,-35l3 -4c6,8 24,16 54,23 -23,-5 -49,-35 -72,-40l-12 53c1,-1 3,-4 5,-7zm-144 -36l32 7 39 -73 -7 -2 7 -14 -31 -7 -40 74 7 1 -7 14zm-128 -86l91 21c7,-29 33,-55 78,-78 -13,3 -28,7 -43,12 11,-9 26,-19 43,-27 -42,10 -99,29 -169,56l25 6 -25 10zm-145 29c7,99 11,145 13,139 37,-34 80,-71 130,-112 -6,0 -13,0 -20,0l20 -16c-22,-1 -51,5 -86,17 -19,-25 -38,-39 -57,-43l2 15 -2 0zm662 -401c29,20 66,44 94,42 23,-2 27,-4 30,-18l-6 -4c3,-2 4,-6 6,-12 -15,-9 -33,-16 -54,-21 -22,-5 -46,-4 -70,-2 6,4 14,9 21,14 -7,0 -14,1 -21,1zm136 32c-3,4 -5,7 -8,10 7,1 14,3 21,3 -4,-4 -8,-9 -13,-13zm-3139 -851c-6,2 -17,24 -33,66 -13,-30 -24,-42 -34,-38l17 -8c-6,-7 -12,-10 -17,-8l67 -28c-3,1 -8,9 -15,22l15 -6zm-174 89c-2,1 -3,2 -4,2 0,-5 2,-11 4,-17 -19,7 -47,68 -65,76 4,-1 9,-1 16,0 -6,7 -12,13 -16,15 34,-4 192,29 204,59 5,11 12,30 17,57 3,16 6,22 12,20 -16,-39 -26,-69 -29,-92 5,11 12,30 17,57 3,15 6,22 12,19 -18,-42 -27,-74 -29,-97 1,-14 7,-23 17,-27 22,-10 48,-9 71,-19 24,-10 41,-29 51,-57 -3,1 -5,2 -8,2 3,-5 6,-11 8,-18 -26,11 -46,2 -58,-28 -1,33 -17,56 -47,68 -18,8 -76,11 -173,9 -2,-5 -3,-10 -4,-15 1,-4 2,-9 4,-14zm80 144l-2 1 14 135 29 0 -1 -16 1 0 -15 -147 -28 12 2 15zm-58 303l-5 2 14 34 76 -32 -5 -13 5 -3 -14 -34 -76 33 5 13zm237 -234l-7 11 26 18 42 -70 -7 -5 7 -11 -25 -18 -43 71 7 4zm2345 606l6 13 -46 19 -14 -34 5 -2 -5 -13 45 -20 15 35 -6 2zm-786 79l5 12 -92 64 -15 -35 5 -3 -5 -12 92 -63 15 34 -5 3zm-471 266l3 31 53 6 0 -33 0 0 0 -15 -56 -5 1 16 -1 0zm294 186l-5 3 21 51 31 -13 -6 -13 6 -2 -22 -52 -30 13 5 13zm-866 -1114l20 -19 5 9 -25 10zm2272 -178l1 -2c1,2 1,2 1,3l-2 -1zm-892 -575c1,-6 2,-12 2,-16l-2 1c1,-8 2,-15 2,-19 1,3 5,8 9,13l-8 4c2,4 4,7 8,12l-11 5zm-1529 780l-5 -19 5 3c-2,-8 -4,-15 -6,-21l-9 12 8 5 -8 10 15 10zm149 -12l20 -18 5 9 -25 9zm2114 -628c-24,52 -59,106 -84,135 -5,-5 -9,-11 -12,-17l6 -6c-2,-3 -4,-6 -6,-10 35,-35 67,-74 96,-118 -9,21 -20,41 -32,60 11,-14 22,-29 32,-44zm158 451l1 -2c1,1 1,2 1,3l-2 -1z"/>
    <path class="fil2" d="M17903 10813l-56 36 -13 -18 6 -3 -5 -7c-40,76 -83,150 -129,222l-10 4 -18 5 -900 -1423 -27 11 7 30 -6 -13 6 24 -24 -56c1,-1 2,-1 4,-1l-4 -10c6,-3 21,-1 34,0l-530 -839 23 -11 -7 -12 7 -3 -40 -81 -26 12 6 13 -6 3 24 50 -226 -358 54 33 17 -24 -8 -3 8 -12 -73 -36 -4 23 2 2 -1 9 -299 -472 45 -9 -7 -14 7 -2 -15 -29 -57 11 -472 -746 9 -13 -6 -7 6 -9 -21 -21 -11 14 -125 -198 -4 -2 1 -2 -154 -245 -631 973c-17,-25 -34,-46 -52,-50l-28 133 3 -2 -3 17c15,-8 31,-13 48,-16l-29 27 -6 -7 -169 262c-11,-5 -23,-15 -38,-31l-22 100 4 -1 -4 17c2,-1 4,-1 6,-2l-39 60c12,1 25,2 30,0l-27 11c11,1 22,2 27,0l-39 16 7 30 -6 -13 6 24 -17 -39 -298 460 -6 0 1 7 -22 35c5,4 10,7 14,11l-19 -4 0 0c7,6 14,10 19,15 -9,-2 -18,-4 -26,-5l-49 77c8,16 21,28 38,35 -8,-1 -16,-2 -22,-3 6,6 13,10 22,14 -26,-2 -45,-7 -58,-16l-128 197c9,10 18,21 30,33l-33 -27 -1 0c9,11 20,24 34,38 -14,-11 -26,-21 -38,-31l-137 211 3 9 -3 0 3 11 -14 -3 -1101 1697 -5 34 -15 -3 -83 128c-22,-34 -43,-68 -64,-103l-50 39 -18 -18 6 -5 -6 -6 51 -40c-61,-104 -115,-211 -164,-321l-16 3 3 -11 -3 0 4 -19c-170,-397 -265,-833 -265,-1290 0,-82 3,-163 9,-243 -23,-6 -46,-11 -66,-16 -2,1 1,-2 9,-9l-9 -2c-5,2 20,-19 74,-64 19,-179 51,-354 97,-523l-35 7 6 -13 -6 2c11,-24 20,-42 26,-55 9,4 16,8 23,12 58,-202 135,-397 229,-581l-37 -12 1 -11 -1 0 2 -21 41 12 -2 10 2 1 -3 15c41,-79 84,-156 131,-232 -8,-9 -15,-18 -22,-25 -8,22 -21,37 -40,45l-49 -114 5 0 -5 -11c41,3 75,0 102,-11 10,24 26,45 40,67 74,-115 156,-226 244,-331l-5 -11 4 -2 -4 -9 33 -14 1 2c61,-71 125,-139 191,-205l-5 -17 3 0 -3 -11 36 -2c200,-191 423,-358 665,-496 6,8 11,17 14,25 6,13 8,27 7,41 10,-4 23,-18 40,-41l-7 -6 7 -9c-10,-10 -20,-19 -30,-27 227,-126 470,-227 726,-299l-2 -10 1 -5 2 10 -2 -10 5 -26c2,-24 0,-50 4,-71l-2 3c1,-5 1,-10 2,-14 -8,14 -14,21 -19,25 0,8 -1,16 0,24l0 0c-1,12 0,23 2,35l7 0 0 2 0 0 0 1 0 0c-1,8 0,17 0,26l0 0 2 10c231,-65 472,-106 720,-121l1 -13 0 0 0 0c0,-8 -1,-16 -2,-24l-18 -95c-8,-6 -25,-10 -49,-14 -49,-7 -69,-10 -58,-7 0,-5 2,-8 4,-12 -8,-1 -9,-1 -4,0 0,-2 1,-4 2,-6l-4 -1 3 -11 -3 -1 6 -19 15 4 1 11c10,-4 22,-5 38,-2l-5 -8c-9,2 -19,5 -32,8 9,-5 16,-11 23,-17 -7,2 -14,4 -23,6 10,-6 19,-13 27,-21l5 -15 7 2c14,-16 23,-35 27,-56 15,15 27,23 36,25l-10 7c4,2 7,3 10,4l-34 23c3,18 8,41 15,69l0 -6c2,-1 3,-1 5,-1 30,1 52,18 66,52 0,2 -1,4 -2,6l2 5c-1,12 -21,11 -27,18l0 28c8,10 23,24 35,11 -5,6 -10,11 -15,16 5,1 10,0 15,-5 -12,13 -22,21 -24,37 56,-2 113,-4 170,-4 695,0 1341,208 1876,564 3,-2 5,-3 6,-4 0,2 -1,4 -1,7 12,8 24,16 36,25 50,0 80,-2 91,-7 22,-9 33,-25 33,-48 9,21 23,27 42,19 -1,5 -3,9 -5,13 2,0 3,-1 5,-2 -6,21 -19,34 -36,42 -17,6 -36,6 -52,12 -6,3 -10,9 -12,17 31,22 61,44 90,67l22 -36 19 12 -5 8 5 4 -19 30c184,144 352,307 501,485 15,-19 39,-12 67,-18l-3 12 3 -1c-7,23 -14,41 -20,65 117,146 222,303 313,468l0 -1 3 0 12 24 -3 -1c159,294 275,615 338,954l19 -18 43 45 -6 5 6 6 -19 18 -41 -43c4,21 7,41 11,62 18,-2 37,-4 39,-1 -7,2 -14,6 -22,10 12,-1 21,-1 22,1 -11,4 -23,10 -35,18 14,89 24,178 30,269l-27 -31c3,53 -22,29 -12,56 -5,5 -4,12 20,57 7,-2 15,-5 24,-6 2,50 3,101 3,153 0,133 -8,264 -23,393 2,1 5,2 7,4 16,8 23,8 25,2 -1,-4 -2,-9 -4,-15 1,1 2,2 4,3 -1,-4 -3,-8 -4,-14 11,9 16,21 15,39 1,10 -1,22 -5,35 -11,-10 -25,-19 -42,-25 -20,151 -49,298 -89,442 -5,5 -10,9 -21,18l14 4c-4,3 -8,7 -14,12l11 3c-32,110 -69,218 -112,323 18,-6 39,-9 63,-10l-1 11 1 0c-4,48 -7,86 -8,114 -52,2 -84,1 -95,-1 -1,-4 -2,-7 -3,-10 -27,59 -55,118 -85,175l2 7 -3 0 2 8 34 -20 -6 -4 5 -7 -5 -4 20 -27 19 14 -5 7 5 4 -17 23 5 4 -8 6 8 5zm-4412 -2768c-43,32 -69,41 -129,66l6 -18 -6 2 19 -55 110 -10c-10,7 -18,13 -27,18l27 -3zm535 -1334l2 -25 -2 1 2 -17c-6,6 -11,11 -16,16 2,3 5,5 9,7l-9 9c3,4 8,7 14,9zm-379 1541l3 8c0,17 -29,16 -37,25l-1 40c12,14 33,34 49,16 -7,8 -14,15 -20,22 7,2 14,0 20,-6 -17,19 -33,32 -34,60 0,15 -15,23 -44,26l0 -15 0 0c0,-12 0,-23 1,-35l0 0c-1,-12 -1,-23 -3,-35l-29 -160 0 -10 1 0 -1 -5 0 -11c3,0 5,0 7,0 42,1 72,25 91,72 0,4 -1,6 -3,8zm-5 242l0 29 -50 20 -4 -31 2 -1 -2 -15 54 -18 0 16 0 0zm-54 -407c-2,5 -5,10 -8,15 29,1 70,16 122,47 0,-5 0,-11 -1,-16l1 1c1,-34 -15,-67 -15,-101l-86 -2c0,13 -7,31 -21,56 3,0 6,0 8,0zm4048 2620l-6 -8 3 -2c4,1 9,2 14,2l-11 8zm36 36l-12 10 -12 -15c0,-4 0,-7 0,-10l9 6 -9 -12c0,-3 0,-7 0,-9l24 15 -11 8 11 7zm-36 -21l-6 -7 3 -3c4,1 9,2 14,3l-11 7zm490 -938l-54 42 -18 -23 8 -5 -8 -10 54 -43 18 23 -8 6 8 10zm-74 -686c-32,-38 -54,-78 -66,-119 3,5 6,9 10,14 -4,-10 -7,-20 -10,-29 19,29 46,47 80,54l-3 15 3 1 -14 64zm-132 -610l7 -33 -4 0 4 -15 -51 -11 -7 32 3 1 -3 15 51 11zm-153 -33l7 -32 -3 -1 3 -15 -51 -11 -7 33 3 0 -3 15 51 11zm-76 -16l7 -33 -4 0 4 -15 -73 -16 -7 33 3 0 -3 15 73 16zm-658 73l6 -29 -3 -1 3 -14 -73 -16 -6 29 3 1 -3 15 73 15zm-897 -956l-72 -16 3 -14 -3 -1 6 -29 72 15 -3 15 3 1 -6 29zm-1929 -7l-60 34 -14 -23 7 -4 -7 -12 56 -32 18 21 -9 5 9 11zm1921 -669l10 -45 -3 -1 3 -15 -33 -7 -10 46 4 0 -4 15 33 7zm89 297l6 -29 -3 -1 3 -15 -91 -19 -6 29 3 1 -3 14 91 20zm68 661l-8 -11 8 -4 -38 -52 -22 12 8 11 -8 4 39 53 21 -13zm-265 -307l6 -29 -3 -1 3 -15 -91 -19 -6 29 3 1 -3 15 91 19zm298 511l-11 -3c3,-4 7,-8 11,-13l-171 -36c-2,9 -3,18 -2,27 -1,19 3,38 13,56 -44,5 -112,8 -146,-20l14 25c-5,-3 -10,-6 -14,-10l33 58c19,4 13,20 37,25 55,11 113,3 168,15 8,-39 31,-80 68,-124zm-1436 -1610l-1 -16 1 1c-9,-102 -14,-149 -15,-143 -38,35 -82,74 -132,118 6,0 12,0 19,-1l-19 17c23,0 52,-6 88,-19 20,25 40,39 59,43zm1149 1494l-8 -1 8 -14 -37 -8 -39 76 8 2 -8 14 33 7 43 -76zm-1297 -1461l-25 -5 25 -11 -94 -20c-7,31 -33,58 -78,82 13,-3 27,-8 43,-13 -12,10 -26,20 -43,29 43,-12 100,-32 172,-62zm-133 -86l-8 -2 8 -14 -33 -7 -39 77 7 1 -7 14 33 7 39 -76zm-156 -3l12 -55c-1,2 -2,4 -5,7l5 -22c-4,6 -14,18 -31,37 -6,-8 -24,-15 -56,-22 19,4 40,23 60,34l-4 4c-6,-8 -24,-16 -56,-22 24,5 52,34 75,39zm162 241l-8 -11 8 -4 -67 -96 -25 12 8 12 -8 3 57 78c-28,-7 -48,-18 -59,-32 -30,34 -53,53 -69,56 -11,-20 -15,-34 -14,-40 -1,4 -1,10 0,16 -6,27 22,75 51,81 3,-15 19,-22 46,-22 28,0 45,-14 51,-42l-5 -1c2,-3 3,-6 4,-9l8 12 22 -13zm-248 -157l-9 -5 9 -11 -27 -16 -61 72 9 5 -9 11 27 15 61 -71zm-88 5c-4,-6 -7,-11 -10,-18l10 2c-10,-13 -16,-32 -19,-55l-57 39 17 4 -17 11 76 17zm1785 698l-127 -27 3 -15 -3 -1 7 -32 127 27 -3 15 3 1 -7 32zm-37 571l-46 38 -22 -22 8 -7 -8 -8 45 -35 23 19 -10 7 10 8zm-1589 -1123c-1,6 4,20 14,40l3 -1c-9,-12 -15,-26 -17,-39zm-156 786c-20,11 -55,12 -103,2 -2,11 -4,21 -5,30 1,11 4,20 9,26l-8 -3c2,7 4,14 8,18 -30,-13 -79,-37 -145,-71 18,5 34,8 49,10 -15,-8 -31,-16 -49,-26 50,13 88,15 115,8 -14,-27 -44,-60 -92,-99l24 5c-7,-6 -15,-13 -24,-20l91 19c3,10 12,27 27,53 23,-9 87,11 103,32 -4,2 -7,4 -12,5 5,4 9,7 12,11zm-185 -6l-51 -11 3 -14 -3 -1 6 -29 51 10 -3 15 3 1 -6 29zm-1696 192c-31,18 -74,32 -127,44 -9,-27 -13,-46 -11,-57 -1,-6 -1,-11 0,-15 11,9 24,15 38,18 27,5 60,3 100,-6 -15,9 -33,17 -54,24 16,-1 34,-4 54,-8zm-95 -105l0 -16 0 0 -1 -105 -36 -8 0 16 0 0 0 105 37 8zm-64 1716l96 -5 5 -32 -3 0 3 -15 -97 7 -4 29 2 0 -2 16zm786 -138l12 86 36 6 -2 -16 2 0 -12 -86 -36 -6 2 16 -2 0zm167 -62c35,-18 62,-33 81,-45 -24,9 -51,18 -81,29 48,-25 82,-44 101,-56 35,-23 59,-45 72,-67l-3 21 3 -5 -10 67c-41,13 -95,31 -163,56zm3347 220c-1,11 0,19 2,26 20,3 64,-16 76,-33l-8 -3c-5,2 -9,3 -12,4 9,-5 16,-11 20,-17l-8 -2c-14,4 -25,6 -34,5l-4 -17 -28 -9c-4,19 -5,35 -4,46zm1237 42l-8 -3 6 -13 -6 -3 11 -20c0,6 -1,13 -2,19l2 -4c0,9 -1,17 -3,24zm-36 -59c3,-5 6,-10 9,-14l-9 -1c15,-24 20,-35 16,-33 2,-1 4,0 5,2 6,13 11,26 14,38l-5 -1c2,5 3,11 5,16l-35 -7zm306 32l-7 -13 7 -3 -32 -65 -26 13 6 13 -6 3 31 65 27 -13zm141 74c-3,-6 -7,-12 -11,-18l11 2c-19,-34 -42,-61 -60,-95 -9,13 -17,27 -25,41l-12 -25 -27 13 7 12 -7 3 21 41 103 26zm-79 622c0,16 1,33 3,50l9 0 0 2 0 1 0 0 0 0c0,12 1,24 1,37l0 1 4 22 -4 -22 2 -7 2 14 -2 -14 6 -37c3,-34 1,-70 6,-100l-2 4c0,-7 1,-14 2,-20 -12,20 -19,29 -26,35 -1,11 -1,22 -1,34zm-439 335l-8 -2 2 6 -38 11 31 6 -31 9 55 12c-3,18 -15,32 -11,48 -3,13 0,26 22,44 42,32 73,1 69,-41 0,-8 0,-17 -2,-26l-5 -9 143 30 7 -31 -4 0 4 -15c-33,0 -71,-5 -115,-14 -25,-6 -47,-10 -64,-14 -15,-13 -36,-24 -63,-32 2,6 5,12 8,18zm-3880 -3024l6 13 -65 27 -14 -34 6 -3 -6 -13 64 -27 15 34 -6 3zm-1670 919l4 14 -31 13 -28 -117 3 -1 -3 -15 31 -13 28 118 -4 1zm-25 176c-1,32 -8,84 -22,154l-30 -72 4 -6 -4 -10c14,-19 31,-46 52,-82 0,5 -1,11 -1,17l1 -1zm230 -323l4 10 -29 41 -21 -24 7 -8 -7 -8 39 -44 11 27 -4 6zm-125 448l7 5 -17 27 -69 -51 6 -12 -6 -4 14 -26 72 50 -7 11zm1075 -1083l3 14 -27 11 -35 -134 3 -2 -3 -14 27 -11 35 134 -3 2zm-1324 583l-3 11 3 -27c-14,54 -24,92 -31,114 -14,41 -30,71 -49,89l18 -7c-5,9 -12,17 -18,23l64 -27c3,-44 8,-103 16,-176zm-20 303l-5 6c1,-7 3,-14 5,-22 -27,36 -40,67 -37,93 -1,12 0,23 5,33 5,12 24,13 59,4 -4,-5 -7,-9 -10,-14 3,0 6,-1 10,-2 -10,-12 -18,-25 -24,-39 -5,-11 -7,-22 -8,-33 0,-9 2,-18 5,-26zm352 -477l-7 8 21 24 29 -41 -4 -10 4 -6 -11 -27 -39 45 7 7zm735 -1215l-5 4 14 34 86 -60 -5 -12 5 -4 -14 -34 -86 60 5 12zm265 584c1,3 2,6 3,9 -4,14 -17,25 -39,35 7,-3 16,-3 26,0 -6,5 -15,11 -26,15 12,-5 29,-1 51,11 -2,-4 -3,-10 -5,-18l5 2c-3,-6 -5,-18 -7,-35 -3,-16 -5,-28 -8,-35 4,9 5,17 3,25 -1,-4 -2,-7 -3,-9zm-11 326l-3 15 31 7 22 -111 -3 0 3 -15 -32 -7 -21 110 3 1zm53 -304c37,14 61,34 71,59 4,9 6,19 7,30 -1,6 -1,11 -2,17 -12,0 -24,2 -36,7 -7,3 -14,7 -21,11 46,22 73,31 81,28 -2,-5 -4,-10 -4,-15 1,0 3,0 4,-1 -2,-4 -3,-9 -4,-14 0,-3 1,-6 2,-9 76,56 119,94 127,115 -2,-7 -6,-17 -10,-31 5,6 9,11 10,15 -3,-9 -8,-24 -14,-46 -5,-22 -10,-37 -14,-47 -7,-16 -23,-25 -49,-27 -21,-2 -36,-4 -44,-6l13 -38 -4 -4 4 -12c-46,-45 -85,-61 -117,-47 9,3 17,7 24,11 -9,0 -17,1 -24,4zm53 124c-4,1 -9,3 -13,5 -17,7 -34,18 -54,35 4,-11 7,-19 12,-26 -4,3 -8,7 -12,10 8,-22 17,-35 30,-41 14,7 26,13 37,17zm50 -23c-1,0 -3,-1 -4,-1l1 -2 3 3zm59 -159l-7 9 24 22 54 -75 -4 -10 4 -6 -11 -27 -67 80 7 7zm49 159l3 31 52 6 1 -33 0 0 0 -15 -56 -5 1 16 -1 0zm64 -274l-6 3 13 31 146 -74 -6 -12 6 -3 -13 -31 -146 73 6 13zm-1164 2598l7 16 -56 -5 4 -15 -4 0c13,-43 21,-66 25,-67l31 72 -7 -1zm85 -114c8,3 15,8 22,14 -2,-15 -10,-25 -22,-29 23,9 42,32 58,68l-6 3c2,4 4,8 6,13l-68 28c9,-8 15,-16 21,-24l-21 8c18,-16 29,-34 31,-53 -1,-14 -9,-24 -21,-28zm-50 -399l-8 8 11 11 -29 -3 1 16 -1 0 2 31 56 5 -1 -16 1 0 -2 -31 -11 -1 27 -31 -5 -10 5 -5 -12 -28 -42 46 8 8zm209 659l-5 2 21 51 31 -12 -6 -14 6 -2 -22 -51 -30 13 5 13zm3925 -1145l-6 -13 6 -3 -31 -65 -26 13 6 13 -6 3 31 65 26 -13zm-50 -104l-27 13 -39 -82 6 -3 -6 -12 26 -13 40 81 -7 3 7 13zm-51 -104l-26 13 -23 -46 7 -3 -7 -12 27 -13 22 45 -6 3 6 13zm-245 -170l-56 3 -4 -30 2 0 -2 -16 49 4 11 23 -7 1 7 15zm-383 -139l-67 -92c4,-2 7,-2 11,0l-11 -16c8,-4 17,1 29,15 11,12 15,25 12,37l0 1c21,6 31,16 27,36 1,5 1,11 -1,19zm-26 -51c1,4 0,8 -1,12 5,1 9,3 13,4l-12 -16zm-97 -348c3,-7 6,-14 8,-20 -2,2 -5,3 -8,5 7,-16 12,-30 13,-43 -3,-25 -19,-46 -49,-65 -7,11 -21,19 -36,25 12,-48 22,-74 29,-78 6,11 14,21 25,29 2,-36 4,-66 4,-90 0,-27 -2,-45 -7,-54 2,3 4,7 6,10 -1,-12 -3,-21 -6,-26 13,26 34,48 47,74 4,8 5,17 3,26 3,14 -2,30 -14,47l-13 19 38 18c0,6 0,12 0,18 2,56 -12,92 -40,105zm-85 -93c-13,3 -26,6 -36,8 21,8 37,10 49,4 3,-14 6,-26 9,-37 -18,10 -41,14 -58,17 14,6 26,8 36,8zm310 19l-94 -2 -2 -27 1 0 -1 -15 85 6 11 23 -7 0 7 15zm-327 -560l-93 45c9,-5 17,-15 25,-27l-25 12c18,-12 34,-38 47,-80 8,10 23,22 46,35l-15 7c5,2 10,5 15,8zm565 1567l-7 -12 7 -3 -56 -114 -29 14 6 13 -6 3 56 113 29 -14zm-421 -640l-7 -15 7 0 -11 -23 -46 -6 3 16 -3 0 5 30 52 -2zm104 -103c-3,-4 -6,-9 -8,-14l8 -1c-17,-26 -27,-61 -28,-103 -26,-3 -65,-7 -117,-11 3,6 9,12 17,17l-17 -2c9,20 40,30 91,32 3,12 5,23 8,32 2,5 3,9 4,13 -4,9 -20,3 -40,-7 7,14 18,23 35,27 -7,2 -20,-3 -35,-11 12,24 39,33 82,28zm-154 -146c-6,-13 -17,-23 -27,-34 12,0 21,6 27,19 -9,-20 -30,-34 -40,-53 -5,24 -12,38 -22,43 6,-3 11,-5 16,-7 -4,12 -9,19 -16,22 31,-15 52,-11 62,10zm-157 -28c15,6 29,5 43,0 15,-7 21,-16 17,-30 2,-7 1,-15 -4,-25 -12,-26 -30,-45 -53,-58 0,5 0,10 1,16l-1 0c0,5 1,12 1,19l0 1c-1,18 -2,38 -4,62l1 0 -1 15zm-226 -352c23,-11 33,-28 29,-50 2,-7 1,-15 -1,-23 -2,-6 -3,-11 -3,-15 1,-9 6,-15 13,-19 -2,-3 -4,-7 -7,-10 2,-2 4,-4 7,-5 -13,-26 -65,-41 -90,-29 6,-3 20,-2 42,4 0,3 0,6 -1,9 -15,-3 -30,-3 -41,2 6,-2 19,-1 39,4 -4,15 -16,36 -34,63 2,1 5,3 8,4l-8 12c18,7 34,25 47,53zm0 -185l-6 -12 6 -3 -15 -30 -43 22 6 12 -6 3 14 29 44 -21zm2445 2459l2 -1 -3 5c0,-1 1,-3 1,-4zm-263 -803l1 2c-1,0 -2,0 -3,-1l2 -1zm263 818l2 0 -3 5c0,-2 1,-3 1,-5zm197 -674c-29,-49 -53,-109 -62,-146l4 0c-2,-6 -3,-11 -4,-15 6,-1 13,-1 20,-1 9,49 23,98 42,147 -6,-10 -11,-20 -16,-30 5,15 10,30 16,45zm-460 -128l1 2c-1,0 -2,-1 -3,-1l2 -1z"/>
   </g>
  </g>
 </g>
</svg>
