<?xml version="1.0" encoding="UTF-8"?>
<!DOCTYPE svg PUBLIC "-//W3C//DTD SVG 1.1//EN" "http://www.w3.org/Graphics/SVG/1.1/DTD/svg11.dtd">
<!-- Creator: CorelDRAW X7 -->
<svg xmlns="http://www.w3.org/2000/svg" xml:space="preserve" width="297mm" height="210mm" version="1.1" style="shape-rendering:geometricPrecision; text-rendering:geometricPrecision; image-rendering:optimizeQuality; fill-rule:evenodd; clip-rule:evenodd"
viewBox="0 0 29700 21000"
 xmlns:xlink="http://www.w3.org/1999/xlink">
 <defs>
  <style type="text/css">
   <![CDATA[
    .fil0 {fill:none}
    .fil1 {fill:#C3000F}
   ]]>
  </style>
 </defs>
 <g id="Camada_x0020_1">
  <metadata id="CorelCorpID_0Corel-Layer"/>
  <polygon class="fil0" points="18750,14400 10950,14400 10950,6600 18750,6600 "/>
  <g id="_2573201251168">
   <path class="fil1" d="M12743 13192l1 22 41 3 -1 -11 1 0 -2 -22 -8 -1 6 -6c474,371 1053,618 1685,692l-9 14 47 38 -3 3c38,8 78,22 83,34 4,8 9,21 13,40 2,11 4,16 8,14 -12,-27 -19,-49 -21,-65 4,8 9,21 13,40 2,11 4,16 8,14 -13,-29 -20,-52 -21,-69 1,-10 5,-16 12,-19 16,-7 35,-6 52,-13 7,-3 14,-8 19,-13 67,4 134,6 202,6 136,0 270,-8 401,-23 11,-11 27,-22 50,-31 -9,5 -16,14 -21,25 6,-3 13,-6 21,-10 -5,3 -8,7 -12,11 97,-12 193,-29 287,-49l-9 -21 6 -1 -6 -15 77 -4 2 25c41,-10 83,-21 123,-32l0 -1 6 -1c22,-6 44,-13 66,-19l4 -17 25 8c82,-26 162,-54 240,-85 -15,-25 -30,-58 -44,-93l5 -4 -5 -11 32 -34 0 7 0 13 0 2 0 1 0 1 0 1 0 1c0,38 3,60 39,105 107,-44 211,-93 312,-147l15 62 22 -10 -2 -10 2 -1 -13 -54c108,-59 213,-123 313,-193l9 17 74 18c-2,-5 -5,-9 -8,-13l8 2c-11,-21 -25,-37 -37,-57 23,-16 46,-33 68,-50 36,-6 73,-6 107,-17 -2,-4 -4,-7 -6,-10l6 -1c-11,-20 -19,-30 -27,-35l12 -9 2 0c-10,-10 -22,-24 -37,-42 19,-2 39,-1 53,7 11,-18 18,-36 20,-52 -3,-22 -16,-42 -41,-63 7,1 14,2 21,5 -6,-7 -13,-14 -21,-20 33,0 61,28 84,83l-4 6 4 8c24,-21 48,-43 72,-65l-1 -2 5 -3 -5 -13 2 -1 -89 -143 -1 1c2,4 3,8 5,12 -22,14 -57,35 -104,61 0,-6 2,-12 6,-19l-6 4c1,-22 23,-45 69,-68 -2,-7 -3,-14 -4,-20 -5,-46 -21,-32 -43,-4 0,-9 3,-17 7,-24l-7 8c1,-16 8,-29 22,-40l-202 -325 -81 23 -5 -25 3 -1 -3 -14 64 -19 -216 -347c25,1 49,1 73,6 6,-27 22,-57 49,-88l-8 -2c3,-3 5,-6 8,-9l-123 -26c-2,7 -2,13 -2,19 -1,14 2,27 10,40 -13,2 -28,3 -43,3l-57 -93 8 -14 -6 -1 6 -10 -27 -6 0 1 -149 -240 0 -5 -4 -2 -15 -23 0 -1c9,-12 13,-23 11,-33 1,-7 0,-13 -2,-19 -10,-18 -25,-34 -34,-52 2,3 3,10 4,18 -2,-2 -3,-5 -4,-7 3,6 5,19 5,38l0 1c0,6 0,13 -1,21l-953 -1533c2,-2 4,-2 6,-3 2,-1 5,-2 8,-1 6,1 10,3 12,7 1,-2 -2,-8 -9,-17 4,1 7,3 9,6 1,-3 -8,-17 -26,-42l-7 38 -437 -703 -113 178c-5,-3 -10,-8 -17,-12l20 3c-18,-14 -48,-34 -92,-59l8 16 -8 -5 24 49c16,2 37,5 64,10l-58 92c-6,-6 -10,-13 -14,-20 -5,-10 -8,-20 -10,-30 -21,14 -29,24 -25,32l1 2c-2,3 -3,6 -1,9 6,13 18,22 36,27l-531 840 0 0 0 0 -893 1414 27 62 -6 3 6 13 -28 12 -22 -54 -692 1095c65,60 132,118 201,173l-3 3 5 6 -5 5 7 8 -20 -1 0 11 0 0zm3470 -1625l1 0 -3 5c0,-2 1,-3 2,-5zm-1025 45c1,-2 3,-4 4,-6 -2,2 -3,4 -4,6l0 0zm-827 -523c-3,-6 -6,-11 -9,-16 10,2 22,5 35,8l-26 8zm849 957l-1 -1 6 0c-2,0 -3,1 -5,1zm623 815c-2,0 -4,0 -6,0 2,0 4,0 6,0l0 0zm-1130 -139l1 -2c1,1 1,2 1,3l-2 -1zm-892 -575c1,-7 2,-13 2,-17l-2 1c2,-8 2,-14 2,-19 2,4 5,8 9,13l-8 5c2,3 5,7 8,11l-11 6zm2402 -564l1 0 -3 5c0,-2 1,-4 2,-5zm-1025 44c1,-1 3,-3 4,-5 -2,2 -3,3 -4,5l0 0zm-821 -595c0,7 1,11 1,15 -34,2 -63,0 -87,-5l-6 -2c-42,-22 -38,-61 -85,-116 -13,12 -26,25 -40,41l-11 -8 7 -10 -7 -6 51 -70 108 79c24,18 46,36 69,54 1,13 0,22 1,28l-1 0zm-6 72c-3,-5 -6,-11 -9,-16 10,3 22,5 35,8l-26 8zm849 958l-1 -1 6 0c-2,0 -3,0 -5,1zm-818 -1167l-38 -31c2,2 -13,-35 -45,-110 -17,-41 -35,-75 -54,-102l8 -3c-2,-4 -5,-8 -8,-12l29 -12 108 255 -10 -8 10 23zm1441 1981c-2,0 -4,0 -6,1 2,-1 4,-1 6,-1l0 0zm-1288 -589c-24,52 -59,105 -84,134 -4,-5 -8,-10 -12,-17l6 -6c-2,-3 -4,-6 -6,-9 35,-35 67,-75 96,-118 -9,20 -20,41 -32,60 11,-15 22,-29 32,-44zm158 450l1 -2c1,2 1,3 1,3l-2 -1zm2260 357c-10,4 -20,11 -31,23 20,-6 47,-12 70,-10 -7,-8 -16,-19 -26,-31 -13,0 -28,8 -44,25 9,-2 20,-5 31,-7zm79 37l14 -3 -8 -13c-2,5 -5,11 -6,16zm16 1c18,44 -1,36 19,83 12,-19 8,-24 8,-30l0 0 0 0 0 0 0 -1c-7,-15 -16,-32 -27,-52zm67 16l3 -2 -4 -2c0,1 1,3 1,4zm-3 -8l6 -5 -16 -8c4,4 7,8 10,13zm-140 -193c0,22 -14,44 -14,66 -15,-20 -29,-30 -40,-30 10,0 18,-1 25,-2 -9,-9 -17,-14 -25,-14 36,1 54,-11 54,-36 0,13 -5,26 -9,40 6,-6 9,-14 9,-24zm-513 464c8,-1 15,-3 22,-4 -7,-2 -16,-2 -26,-2l4 6zm106 -658c-3,3 -5,6 -8,9 8,2 15,3 22,4 -4,-5 -9,-9 -14,-13zm-209 583l-8 1c3,-5 5,-11 8,-16 -54,9 -80,13 -79,12l-22 17c0,4 1,9 2,14l-2 2c1,9 4,20 7,34l63 1c10,-23 21,-44 31,-65zm103 91c8,-2 15,-3 22,-5 -7,-1 -16,-2 -26,-2l4 7zm-1657 -3597c-42,-9 -78,-10 -110,-3 2,-6 3,-12 4,-17l-4 1c2,-7 4,-13 5,-19 -2,-6 -5,-9 -11,-11 4,1 8,3 11,4 1,-11 -3,-18 -11,-19 15,3 30,16 42,19l62 -24c10,25 14,42 12,53l0 0c1,6 1,12 0,16zm-179 321l-29 -6 -9 -63 2 -1 -2 -15 27 -1 11 70 -3 0 3 16zm124 -421l-16 20 -43 -29 6 -12 -6 -4 13 -24 46 33 -8 10 8 6zm54 615l75 11 -6 -16 6 1 -18 -52c-37,22 -57,36 -57,40l15 2c-10,7 -15,11 -15,14zm-29 116c14,19 40,32 78,38l11 -70 -4 6 4 -22c-14,24 -31,40 -51,45 -18,4 -31,-1 -38,-13 8,12 21,21 38,28l0 0c-18,4 -31,0 -38,-12zm1964 2220l3 1 -7 31 -109 -25 3 -15 -3 -1 7 -31 109 26 -3 14zm-214 -103l9 -9 -9 -6 35 -38 22 15 -8 9 8 6 -35 39 -22 -16zm-133 -20l7 -3 -7 -13 77 -25 12 26 -6 2 6 13 -76 26 -13 -26zm-320 389c1,-3 2,-6 3,-9l-5 -1c6,-28 23,-41 50,-40 27,1 43,-6 46,-21 27,7 53,53 48,80 1,6 1,12 0,17 1,-7 -3,-20 -13,-40 -16,3 -38,21 -68,54 -11,-15 -30,-26 -57,-33l54 76 -8 4 8 12 -25 10 -63 -94 8 -4 -8 -11 21 -12 9 12zm126 -29c8,12 14,25 16,38 1,-7 -4,-20 -13,-39l-3 1zm372 -276l22 15 35 -38 -9 -6 9 -10 -23 -15 -34 38 8 6 -8 10zm-383 588l-5 23c4,-6 14,-18 31,-36 5,8 23,16 54,23 -19,-5 -39,-24 -58,-34l4 -4c5,7 23,15 54,22 -23,-5 -50,-35 -73,-40l-12 53c1,-1 3,-4 5,-7zm-144 -36l32 8 40 -74 -8 -2 8 -14 -32 -7 -40 74 8 1 -8 14zm-128 -86l92 21c6,-29 32,-55 77,-78 -13,4 -27,8 -43,12 12,-9 26,-18 43,-27 -42,10 -98,29 -169,56l25 6 -25 10zm-144 29c7,99 11,145 12,139 37,-33 81,-71 130,-112 -6,0 -12,0 -19,1l19 -17c-22,-1 -51,5 -85,17 -19,-25 -38,-39 -57,-43l1 15 -1 0zm661 -401c29,21 67,44 94,42 23,-2 27,-4 30,-18l-6 -3c3,-3 5,-7 6,-13 -15,-9 -33,-16 -54,-21 -21,-5 -46,-4 -70,-2 7,5 14,10 22,14 -7,1 -15,1 -22,1zm136 32c-3,4 -5,7 -8,10 8,2 15,3 22,4 -4,-5 -9,-10 -14,-14zm-3139 -851c-6,2 -17,24 -33,66 -12,-30 -24,-42 -34,-38l18 -7c-7,-8 -12,-11 -18,-9l67 -28c-3,1 -8,9 -14,22l14 -6zm-174 89c-1,1 -3,2 -4,3 1,-6 2,-12 4,-18 -18,8 -47,68 -65,76 4,-1 10,-1 16,0 -6,7 -11,13 -16,15 35,-4 192,29 205,59 4,11 11,30 17,57 3,16 5,22 11,20 -16,-39 -25,-69 -28,-92 4,11 11,30 17,57 3,15 5,22 11,19 -17,-41 -27,-74 -29,-97 2,-14 7,-23 17,-27 22,-10 49,-9 71,-18 25,-11 42,-30 51,-58 -2,1 -5,2 -8,2 4,-5 6,-11 8,-18 -26,11 -45,2 -58,-28 -1,33 -16,56 -47,69 -18,7 -76,10 -172,8 -2,-5 -4,-10 -4,-15 0,-4 1,-9 3,-14zm80 144l-1 1 14 135 29 0 -2 -16 2 0 -16 -147 -27 12 1 15zm-58 303l-5 2 14 34 77 -32 -6 -13 6 -2 -15 -35 -76 33 5 13zm237 -234l-6 11 25 18 42 -70 -6 -5 6 -11 -25 -17 -42 70 6 4zm2345 606l6 13 -46 20 -14 -35 5 -2 -5 -13 46 -20 14 35 -6 2zm-786 79l5 13 -92 63 -14 -35 5 -3 -5 -12 92 -63 14 34 -5 3zm-470 266l2 31 53 6 0 -32 0 0 0 -16 -55 -5 1 16 -1 0zm294 186l-6 3 22 51 30 -13 -5 -13 5 -2 -21 -52 -31 13 6 13zm-866 -1114l20 -18 5 8 -25 10zm2271 -177l2 -2c0,1 0,2 0,2l-2 0zm-892 -576c2,-6 2,-12 3,-16l-3 1c2,-8 3,-15 3,-19 1,3 4,8 8,13l-8 4c2,4 5,8 8,12l-11 5zm-1529 780l-5 -19 5 3c-2,-8 -4,-15 -5,-21l-10 12 9 5 -9 10 15 10zm150 -12l20 -18 5 9 -25 9zm2113 -628c-24,53 -59,106 -84,135 -4,-5 -8,-11 -12,-17l6 -6c-2,-3 -4,-6 -6,-10 35,-35 67,-74 96,-117 -9,20 -20,40 -31,59 11,-14 21,-29 31,-44zm158 451l2 -2c0,1 0,2 0,3l-2 -1z"/>
   <path class="fil1" d="M17921 12103l-56 35 -13 -18 5 -3 -5 -7c-40,76 -83,150 -129,222l-10 4 -17 6 -901 -1424 -27 11 7 30 -6 -13 6 24 -24 -56c1,-1 3,-1 4,-1l-4 -10c6,-3 21,-1 34,0l-530 -838 23 -12 -6 -12 6 -3 -40 -81 -26 12 6 13 -6 3 25 50 -227 -358 55 33 16 -23 -8 -4 8 -12 -72 -36 -5 23 3 2 -2 9 -299 -472 45 -9 -7 -14 7 -1 -14 -30 -58 11 -472 -746 9 -13 -6 -7 6 -9 -21 -21 -10 14 -125 -197 -5 -3 2 -2 -155 -245 -631 973c-16,-25 -34,-46 -52,-50l-28 133 4 -2 -4 17c15,-7 31,-13 48,-16l-29 28 -5 -8 -170 262c-10,-5 -23,-15 -38,-31l-21 100 3 -1 -3 17c2,0 3,-1 5,-1l-39 59c13,1 25,2 31,0l-28 12c11,0 23,1 28,-1l-40 17 7 29 -6 -13 6 24 -17 -39 -298 460 -5 0 1 7 -23 35c5,4 10,7 14,11l-19 -4 0 1c8,5 14,10 19,14 -9,-2 -17,-3 -25,-5l-50 77c8,16 21,28 38,35 -8,-1 -15,-1 -22,-3 6,6 14,11 22,14 -25,-2 -45,-7 -58,-16l-127 197c8,10 18,21 29,33l-33 -27 0 0c9,11 20,24 33,38 -13,-11 -26,-21 -38,-31l-137 211 3 9 -3 0 3 11 -14 -3 -1100 1697 -5 34 -15 -3 -84 128c-22,-34 -43,-68 -64,-103l-50 39 -18 -18 6 -5 -6 -6 51 -40c-60,-103 -115,-211 -163,-321l-17 3 3 -11 -3 0 5 -19c-171,-397 -265,-833 -265,-1290 0,-82 3,-163 9,-243 -24,-6 -46,-11 -67,-15 -2,0 1,-3 9,-10l-9 -2c-4,2 21,-19 75,-64 18,-179 51,-354 97,-523l-35 7 5 -12 -5 1c11,-24 19,-42 26,-54 8,3 15,7 22,11 58,-202 135,-397 229,-581l-37 -12 1 -11 -1 0 2 -21 41 12 -2 10 2 1 -2 15c40,-79 84,-156 130,-232 -7,-9 -15,-18 -21,-25 -8,22 -22,37 -41,45l-49 -114 5 0 -5 -11c42,4 76,0 102,-11 10,24 26,45 40,68 75,-116 156,-227 244,-332l-4 -11 4 -2 -4 -9 33 -14 0 2c61,-71 125,-139 192,-205l-6 -17 4 0 -4 -11 37 -2c199,-191 422,-358 665,-496 5,8 10,17 13,25 6,14 8,27 7,41 10,-4 24,-18 40,-41l-7 -6 7 -9c-10,-10 -20,-19 -30,-27 227,-126 470,-227 726,-299l-1 -10 0 -5 2 10 -2 -10 5 -26c2,-24 1,-50 4,-71l-1 3c0,-5 1,-10 1,-14 -8,15 -13,21 -18,25 -1,8 -1,16 -1,24l0 0c0,12 0,23 2,35l7 0 0 2 0 0 0 1 0 0c0,8 0,17 0,26l1 0 1 10c231,-65 472,-106 721,-121l0 -12 0 -1 0 0c0,-8 -1,-16 -2,-24l-17 -95c-9,-6 -25,-10 -49,-14 -50,-7 -70,-10 -59,-7 1,-5 2,-8 4,-11 -7,-1 -9,-1 -4,0 0,-3 1,-5 2,-7l-3 -1 3 -11 -3 0 6 -20 14 4 1 11c10,-4 23,-4 39,-2l-5 -8c-9,2 -20,5 -32,8 8,-5 16,-11 22,-17 -6,2 -14,4 -22,6 10,-6 19,-13 27,-21l4 -15 7 3c14,-17 23,-36 28,-57 15,15 27,23 35,25l-10 7c4,2 7,3 10,4l-34 23c3,18 8,41 15,69l0 -6c2,-1 4,-1 5,-1 30,1 52,18 66,52 0,2 -1,4 -2,6l2 5c0,12 -21,11 -27,18l0 28c8,10 23,24 35,11 -5,6 -10,11 -14,16 5,1 10,0 14,-4 -11,12 -22,20 -24,37 56,-3 113,-5 170,-5 695,0 1341,208 1877,564 2,-2 4,-3 6,-4 -1,2 -2,5 -2,7 12,8 24,16 36,25 50,0 80,-2 91,-7 22,-9 33,-25 34,-48 9,21 23,27 42,19 -2,5 -4,10 -6,14 2,-1 4,-2 6,-2 -7,20 -19,33 -37,41 -16,6 -35,6 -52,13 -6,2 -10,8 -11,16 30,22 60,44 90,67l22 -36 18 13 -5 7 5 4 -18 30c183,144 351,307 500,485 15,-19 40,-11 68,-18l-4 12 4 -1c-8,23 -14,42 -21,65 117,146 222,303 313,468l0 -1 3 0 12 24 -3 -1c159,294 275,615 338,954l19 -18 43 45 -5 5 5 6 -19 18 -40 -42c3,20 7,40 10,61 18,-2 37,-4 40,-1 -8,2 -15,6 -22,10 11,-1 20,-1 22,1 -12,4 -24,10 -35,18 13,89 23,178 30,269l-28 -31c3,53 -22,29 -12,56 -5,5 -4,12 20,57 8,-2 16,-4 24,-6 2,50 3,101 3,153 0,133 -8,264 -23,393 3,1 5,2 8,4 15,8 22,8 24,2 -1,-4 -2,-9 -4,-14 2,1 3,1 4,3 -1,-5 -2,-9 -4,-15 12,9 17,22 15,39 1,10 -1,22 -5,35 -11,-10 -25,-19 -42,-25 -19,151 -49,299 -88,442 -6,5 -11,10 -21,18l13 4c-4,3 -8,7 -13,12l10 3c-31,110 -69,218 -111,323 17,-6 38,-9 62,-10l-1 12 1 -1c-4,48 -7,86 -8,114 -52,2 -83,1 -95,-1 -1,-3 -2,-7 -3,-10 -27,59 -55,118 -85,175l2 7 -3 0 2 8 34 -20 -6 -4 6 -7 -6 -4 20 -27 19 14 -5 7 5 4 -17 24 6 3 -8 6 8 6zm-4413 -2769c-43,32 -69,41 -129,66l7 -18 -7 2 19 -55 110 -10c-9,7 -18,13 -27,18l27 -3zm535 -1334l2 -25 -1 1 1 -17c-5,6 -11,11 -16,16 3,3 5,5 9,7l-9 9c4,4 8,7 14,9zm-379 1542l3 7c0,17 -28,16 -37,25l0 41c11,13 32,33 49,15 -8,8 -15,15 -20,22 6,2 13,1 20,-6 -18,19 -34,32 -35,60 0,15 -15,23 -44,26l1 -15 -1 0c0,-12 1,-23 1,-35l0 0c0,-12 -1,-23 -3,-35l-29 -159 1 -11 0 0 -1 -5 1 -11c2,0 4,0 6,0 42,1 72,25 91,72 0,4 -1,6 -3,9zm-5 241l0 30 -50 19 -4 -31 2 -1 -2 -15 54 -18 0 16 0 0zm-53 -407c-3,5 -5,10 -8,15 28,1 69,16 121,47 0,-5 0,-10 0,-16l0 1c1,-34 -15,-67 -14,-101l-86 -2c-1,13 -8,31 -21,56 2,0 5,0 8,0zm4047 2620l-6 -8 3 -2c5,1 9,2 14,2l-11 8zm37 36l-13 10 -12 -15c0,-4 0,-7 0,-10l9 6 -9 -12c0,-3 0,-6 0,-9l25 15 -11 8 11 7zm-37 -21l-6 -7 3 -2c5,0 9,1 14,2l-11 7zm490 -938l-54 42 -18 -22 8 -6 -8 -10 54 -43 18 23 -7 6 7 10zm-74 -686c-32,-38 -54,-78 -66,-119 4,5 7,10 10,14 -4,-10 -7,-19 -10,-29 20,29 46,47 80,54l-3 15 3 1 -14 64zm-132 -610l7 -33 -3 0 3 -15 -51 -11 -7 32 3 1 -3 15 51 11zm-153 -33l7 -32 -3 -1 3 -15 -51 -11 -7 33 4 0 -4 15 51 11zm-76 -16l7 -32 -3 -1 3 -15 -73 -16 -7 33 4 1 -4 14 73 16zm-658 73l6 -29 -3 0 3 -15 -72 -16 -7 29 4 1 -4 15 73 15zm-896 -956l-73 -15 3 -15 -3 -1 6 -29 73 15 -3 15 3 1 -6 29zm-1929 -7l-61 34 -14 -23 7 -4 -7 -12 56 -32 19 21 -9 5 9 11zm1920 -669l10 -45 -3 -1 3 -15 -33 -7 -9 46 3 0 -3 15 32 7zm89 297l6 -29 -3 -1 3 -15 -90 -19 -7 29 4 1 -4 15 91 19zm68 661l-8 -11 8 -4 -38 -52 -21 12 8 11 -8 5 38 52 21 -13zm-265 -307l6 -29 -3 -1 3 -14 -90 -20 -7 29 4 1 -4 15 91 19zm298 511l-11 -3c4,-4 7,-8 11,-13l-171 -36c-2,9 -2,18 -1,27 -2,19 2,38 12,56 -44,5 -111,9 -146,-20l15 25c-5,-3 -10,-6 -15,-10l34 58c19,4 13,20 36,25 55,11 113,4 168,15 8,-39 31,-80 68,-124zm-1436 -1610l-1 -16 1 1c-9,-102 -14,-149 -15,-143 -38,35 -82,75 -131,118 5,0 12,0 19,-1l-19 17c22,0 51,-6 87,-19 20,25 40,39 59,43zm1149 1495l-8 -2 8 -14 -36 -8 -39 77 7 1 -7 14 32 7 43 -75zm-1296 -1462l-25 -5 25 -10 -95 -21c-6,31 -32,58 -78,82 13,-3 27,-8 43,-13 -12,10 -26,20 -43,29 43,-12 101,-32 173,-62zm-134 -86l-7 -1 7 -14 -33 -7 -39 76 7 1 -7 15 33 6 39 -76zm-155 -2l11 -56c-1,2 -2,4 -4,7l4 -22c-3,6 -14,18 -30,37 -6,-8 -25,-15 -56,-22 18,4 40,23 59,34l-3 4c-6,-8 -25,-15 -56,-22 23,5 51,34 75,40zm161 241l-8 -12 8 -4 -67 -96 -25 12 9 12 -9 4 57 77c-28,-7 -48,-17 -59,-32 -30,34 -53,53 -69,56 -10,-20 -15,-34 -14,-40 -1,5 -1,10 0,16 -5,27 23,75 51,81 3,-15 19,-22 47,-22 27,0 44,-14 50,-42l-4 -1c1,-3 2,-6 3,-9l9 12 21 -12zm-247 -158l-9 -5 9 -11 -27 -16 -61 72 9 5 -9 11 27 16 61 -72zm-89 5c-4,-5 -7,-11 -10,-18l10 2c-10,-13 -16,-32 -19,-55l-57 39 18 4 -18 11 76 17zm1786 698l-127 -27 3 -15 -3 -1 6 -32 128 27 -3 15 3 1 -7 32zm-38 571l-46 38 -22 -22 9 -7 -9 -8 45 -35 23 19 -10 7 10 8zm-1589 -1123c-1,7 4,20 14,40l3 -1c-9,-12 -15,-26 -17,-39zm-156 786c-20,11 -54,12 -103,2 -2,11 -4,21 -4,30 1,11 3,20 8,26l-7 -3c1,7 3,14 7,19 -30,-14 -78,-37 -144,-72 17,5 34,8 49,10 -16,-8 -32,-16 -49,-25 49,12 87,15 114,7 -13,-27 -44,-60 -92,-99l25 5c-8,-6 -16,-13 -25,-20l91 19c3,10 12,27 27,53 24,-9 88,11 103,32 -3,2 -7,4 -11,5 5,4 9,7 11,11zm-185 -6l-51 -10 3 -15 -3 -1 7 -29 50 11 -3 14 3 1 -6 29zm-1695 192c-32,18 -75,32 -128,44 -9,-27 -13,-46 -10,-57 -1,-6 -1,-11 0,-15 10,9 23,15 38,18 26,6 60,4 100,-6 -16,9 -34,17 -55,24 17,-1 35,-4 55,-8zm-96 -105l0 -16 0 0 0 -105 -37 -8 0 16 0 0 1 105 36 8zm-64 1716l96 -5 5 -32 -2 1 2 -16 -96 8 -5 28 3 0 -3 16zm787 -138l12 86 35 6 -2 -16 2 0 -12 -86 -35 -6 2 16 -2 0zm167 -62c34,-18 61,-33 81,-45 -25,9 -52,19 -81,29 47,-25 81,-44 100,-56 35,-23 59,-45 73,-67l-4 21 4 -5 -11 67c-41,13 -95,31 -162,56zm3346 220c0,11 0,19 2,26 20,3 65,-16 77,-33l-9 -2c-4,1 -8,2 -12,3 9,-5 17,-11 21,-17l-9 -2c-13,5 -24,6 -34,5l-4 -17 -27 -9c-4,19 -6,35 -5,46zm1237 42l-8 -3 7 -13 -7 -3 11 -20c0,6 -1,13 -2,19l2 -4c0,9 -1,17 -3,24zm-36 -59c4,-5 7,-10 9,-14l-9 -1c15,-24 21,-35 16,-33 2,0 4,0 5,2 6,14 11,26 14,38l-5 -1c2,6 4,11 5,16l-35 -7zm306 32l-6 -13 6 -3 -32 -65 -26 13 6 13 -6 3 32 65 26 -13zm142 74c-4,-6 -8,-12 -12,-18l12 2c-20,-34 -43,-61 -61,-95 -8,13 -17,27 -25,41l-12 -25 -26 13 6 12 -6 3 20 41 104 26zm-79 622c-1,16 0,33 3,50l9 0 0 2 0 1 0 0 0 0c-1,12 0,24 0,37l1 1 3 22 -3 -22 1 -7 2 14 -2 -14 6 -37c3,-34 1,-70 6,-100l-2 4c0,-7 1,-14 2,-20 -11,21 -19,29 -25,35 -1,11 -2,23 -1,34zm-440 335l-8 -2 3 6 -38 11 31 6 -31 9 55 12c-4,18 -16,32 -11,49 -3,12 -1,25 22,43 42,32 72,1 68,-41 1,-8 0,-17 -2,-26l-4 -9 142 30 7 -31 -3 0 3 -15c-33,0 -71,-5 -114,-14 -26,-6 -47,-10 -65,-14 -15,-13 -35,-24 -63,-32 2,6 5,12 8,18zm-3880 -3024l6 13 -64 27 -15 -34 6 -2 -6 -14 64 -27 15 34 -6 3zm-1670 919l4 14 -31 13 -28 -117 4 -1 -4 -15 31 -12 28 117 -4 1zm-25 176c-1,32 -8,84 -21,154l-31 -72 5 -6 -5 -9c14,-20 31,-47 52,-83 0,5 0,11 -1,17l1 -1zm230 -323l5 10 -30 41 -21 -24 7 -8 -7 -7 39 -45 12 27 -5 6zm-124 448l6 5 -17 27 -68 -51 6 -11 -6 -5 14 -26 71 50 -6 11zm1074 -1083l4 14 -28 12 -35 -135 4 -1 -4 -14 27 -12 36 134 -4 2zm-1324 583l-3 11 3 -27c-13,54 -24,92 -31,114 -14,41 -30,71 -49,90l19 -8c-6,9 -12,17 -19,23l64 -27c3,-44 8,-103 16,-176zm-20 303l-5 7c1,-8 3,-15 5,-23 -27,36 -40,67 -37,93 -1,12 1,23 5,33 5,12 24,13 59,4 -4,-5 -7,-9 -10,-14 3,0 7,-1 10,-2 -10,-12 -18,-25 -23,-38 -5,-12 -8,-23 -9,-34 1,-9 3,-18 5,-26zm352 -477l-6 8 20 24 30 -41 -4 -10 4 -6 -12 -27 -38 45 6 7zm735 -1214l-5 3 14 34 86 -60 -5 -12 5 -4 -14 -34 -86 60 5 13zm265 583c1,3 2,6 3,9 -3,14 -16,25 -39,35 7,-3 16,-3 27,0 -7,6 -16,11 -27,16 12,-6 30,-2 51,10 -1,-4 -3,-10 -5,-18l5 3c-2,-7 -5,-19 -7,-36 -2,-16 -5,-28 -8,-35 4,9 5,17 3,25 -1,-4 -2,-7 -3,-9zm-11 326l-3 15 32 7 21 -110 -2 -1 2 -15 -31 -7 -22 110 3 1zm53 -303c37,13 61,33 72,58 3,9 5,19 6,30 0,6 -1,11 -2,17 -12,0 -24,2 -36,7 -7,3 -14,7 -21,11 46,22 73,31 81,28 -2,-5 -3,-10 -4,-15 2,0 3,0 4,-1 -2,-4 -3,-9 -4,-14 1,-3 1,-6 2,-9 76,56 119,95 128,115 -3,-7 -7,-17 -10,-31 4,6 8,11 10,15 -4,-9 -9,-24 -14,-46 -6,-22 -11,-37 -15,-46 -7,-16 -23,-26 -49,-28 -21,-2 -36,-4 -44,-6l13 -38 -4 -4 4 -12c-45,-45 -84,-61 -117,-47 9,3 17,7 24,11 -8,0 -16,1 -24,5zm54 123c-5,2 -9,3 -14,5 -16,7 -34,18 -54,35 4,-11 8,-19 12,-25 -4,3 -8,6 -12,9 8,-22 18,-35 30,-41 14,7 27,13 38,17zm49 -23c-1,0 -2,-1 -3,-1l0 -1 3 2zm60 -159l-8 9 24 22 55 -75 -4 -10 4 -6 -12 -27 -67 80 8 7zm49 159l2 31 53 6 0 -33 0 0 0 -15 -55 -5 1 16 -1 0zm63 -274l-5 3 13 31 145 -74 -5 -12 5 -3 -13 -31 -145 74 5 12zm-1164 2598l7 16 -56 -4 5 -16 -5 0c13,-43 22,-66 26,-67l30 72 -7 -1zm85 -114c8,3 15,8 22,14 -2,-15 -9,-25 -22,-29 23,9 43,32 58,68l-6 3c2,4 4,8 6,13l-67 28c8,-8 15,-16 20,-24l-20 9c18,-17 28,-35 31,-54 -2,-14 -10,-23 -22,-28zm-50 -399l-7 8 10 11 -29 -3 1 16 -1 0 3 31 55 5 -1 -16 1 0 -2 -31 -11 -1 27 -30 -4 -11 4 -5 -11 -27 -42 45 7 8zm210 659l-6 2 22 52 30 -13 -5 -14 5 -2 -21 -51 -31 13 6 13zm3925 -1145l-6 -13 6 -3 -32 -65 -26 13 6 13 -6 3 32 65 26 -13zm-51 -104l-26 13 -40 -82 6 -3 -6 -12 26 -13 40 81 -6 3 6 13zm-51 -104l-26 13 -22 -46 6 -3 -6 -12 26 -13 22 45 -6 3 6 13zm-244 -170l-56 3 -4 -30 2 0 -2 -16 48 4 12 23 -8 1 8 15zm-384 -139l-66 -92c3,-2 7,-2 11,0l-11 -16c7,-3 17,1 28,15 11,12 15,25 12,37l0 1c21,6 31,16 27,36 2,5 1,11 -1,19zm-25 -50c0,3 0,7 -1,11 4,1 9,3 12,4l-11 -15zm-98 -349c4,-7 7,-14 9,-20 -3,2 -6,3 -9,5 8,-16 12,-30 13,-43 -2,-25 -19,-46 -48,-65 -8,11 -22,19 -37,25 12,-48 22,-74 30,-77 5,10 13,20 24,28 3,-36 4,-65 5,-89 -1,-28 -3,-46 -7,-55 1,3 3,7 5,10 -1,-12 -3,-21 -5,-26 12,26 34,48 46,74 4,8 5,17 4,26 3,14 -3,30 -15,47l-13 19 38 18c1,6 1,12 1,18 1,57 -12,92 -41,105zm-85 -93c-12,4 -25,6 -36,8 21,8 37,10 49,4 3,-14 7,-26 10,-36 -19,9 -42,13 -59,16 14,6 27,8 36,8zm311 19l-95 -2 -2 -27 1 0 -1 -15 86 6 11 23 -8 0 8 15zm-328 -560l-92 45c8,-5 17,-14 25,-27l-25 12c18,-12 34,-38 47,-80 7,10 22,22 45,35l-14 7c4,2 9,5 14,8zm565 1567l-6 -12 6 -3 -56 -114 -29 14 7 13 -7 3 56 113 29 -14zm-420 -639l-8 -16 8 0 -11 -23 -46 -6 2 16 -2 0 4 30 53 -1zm104 -104c-3,-4 -6,-9 -9,-14l9 -1c-18,-26 -27,-61 -29,-103 -26,-3 -65,-7 -117,-11 4,6 9,12 17,17l-17 -2c10,20 40,31 91,32 4,12 6,23 9,32 1,5 3,10 3,13 -4,9 -19,4 -39,-6 6,13 18,22 34,26 -7,2 -19,-3 -34,-11 11,24 39,33 82,28zm-154 -146c-6,-12 -18,-23 -28,-34 13,0 22,7 28,19 -10,-20 -31,-34 -40,-53 -5,24 -13,38 -22,43 5,-3 11,-5 16,-7 -5,12 -10,19 -16,22 31,-15 51,-11 62,10zm-157 -28c15,7 28,5 42,0 16,-6 21,-16 17,-30 3,-7 2,-15 -3,-25 -13,-26 -31,-45 -54,-58 0,5 1,10 1,16l-1 0c1,5 1,12 1,19l0 1c0,18 -1,38 -3,62l1 0 -1 15zm-226 -352c22,-11 32,-28 29,-50 1,-7 0,-15 -2,-23 -1,-6 -2,-10 -3,-15 2,-9 6,-15 13,-19 -2,-3 -4,-7 -7,-10 2,-2 4,-4 7,-5 -12,-26 -65,-41 -89,-29 6,-3 19,-2 41,4 0,3 0,6 -1,9 -15,-3 -30,-3 -40,2 5,-2 18,-1 39,4 -5,15 -16,37 -35,63 3,1 5,3 8,4l-8 12c18,7 34,25 48,53zm-1 -185l-6 -12 6 -3 -14 -30 -44 22 7 12 -7 3 15 29 43 -21zm2446 2459l1 0 -3 5c1,-2 1,-4 2,-5zm-264 -803l1 2c-1,0 -2,0 -3,-1l2 -1zm264 818l1 0 -3 5c1,-1 1,-3 2,-5zm196 -674c-29,-49 -52,-109 -62,-146l4 0c-1,-6 -3,-11 -4,-15 6,-1 13,-1 21,-1 8,49 22,98 41,147 -5,-10 -11,-20 -16,-30 5,15 10,30 16,45zm-460 -128l1 2c-1,0 -2,-1 -3,-1l2 -1z"/>
  </g>
 </g>
</svg>
